<?xml version="1.0" standalone="no"?>
<!DOCTYPE svg PUBLIC "-//W3C//DTD SVG 20010904//EN"
 "http://www.w3.org/TR/2001/REC-SVG-20010904/DTD/svg10.dtd">
<svg version="1.0" xmlns="http://www.w3.org/2000/svg"
 width="512.000000pt" height="512.000000pt" viewBox="0 0 512.000000 512.000000"
 preserveAspectRatio="xMidYMid meet">
<metadata>
Created by potrace 1.11, written by Peter Selinger 2001-2013
</metadata>
<g transform="translate(0.000000,512.000000) scale(0.100000,-0.100000)"
fill="#000000" stroke="none">
<path d="M1830 3735 l0 -1025 -145 0 -145 0 0 -585 0 -584 143 -3 142 -3 3
-587 2 -588 145 0 145 0 0 440 0 440 585 0 585 0 0 -440 0 -440 145 0 145 0 0
2194 0 2193 -67 6 c-38 4 -431 7 -875 7 l-808 0 0 -1025z"/>
</g>
</svg>
