<?xml version="1.0" encoding="UTF-8" standalone="no"?>
<svg
   xmlns:dc="http://purl.org/dc/elements/1.1/"
   xmlns:cc="http://creativecommons.org/ns#"
   xmlns:rdf="http://www.w3.org/1999/02/22-rdf-syntax-ns#"
   xmlns:svg="http://www.w3.org/2000/svg"
   xmlns="http://www.w3.org/2000/svg"
   xmlns:sodipodi="http://sodipodi.sourceforge.net/DTD/sodipodi-0.dtd"
   xmlns:inkscape="http://www.inkscape.org/namespaces/inkscape"
   version="1.1"
   id="Layer_1"
   x="0px"
   y="0px"
   width="16"
   height="16"
   viewBox="0 0 16 16"
   enable-background="new 0 0 100 100"
   xml:space="preserve"
   inkscape:version="0.48.4 r9939"
   sodipodi:docname="external_link.svg"><metadata
   id="metadata17"><rdf:RDF><cc:Work
       rdf:about=""><dc:format>image/svg+xml</dc:format><dc:type
         rdf:resource="http://purl.org/dc/dcmitype/StillImage" /><dc:title /></cc:Work></rdf:RDF></metadata><defs
   id="defs15">
	

		
	
			
		
				
				
			</defs><sodipodi:namedview
   pagecolor="#ffffff"
   bordercolor="#666666"
   borderopacity="1"
   objecttolerance="10"
   gridtolerance="10"
   guidetolerance="10"
   inkscape:pageopacity="0"
   inkscape:pageshadow="2"
   inkscape:window-width="939"
   inkscape:window-height="480"
   id="namedview13"
   showgrid="false"
   fit-margin-top="0"
   fit-margin-left="0"
   fit-margin-right="0"
   fit-margin-bottom="0"
   inkscape:zoom="2.36"
   inkscape:cx="-41.320445"
   inkscape:cy="15.156605"
   inkscape:window-x="0"
   inkscape:window-y="0"
   inkscape:window-maximized="0"
   inkscape:current-layer="Layer_1" />
<path
   d="M 3.59801,6.7959163 C 1.609871,6.7959163 0,8.4132325 0,10.401878 c 0,1.988904 1.609871,3.598009 3.59801,3.598009 l 2.642786,0 C 5.741277,13.610665 5.325755,13.121017 5.022885,12.559092 l -1.424875,0 c -1.190337,0 -2.157214,-0.966113 -2.157214,-2.157214 0,-1.1910983 0.966623,-2.1651699 2.157214,-2.1651699 l 1.424875,0 0.557215,0 0.581094,0 0.79602,0 c 0.374448,0 0.735841,0.09692 1.042786,0.2706461 0.16328,0.0861 0.303315,0.1933364 0.437811,0.3184071 0.12991,0.1199757 0.237787,0.2540887 0.334328,0.3980094 0.220848,0.3362388 0.350249,0.7458376 0.350249,1.1781073 0,0.43278 -0.129401,0.834675 -0.350249,1.17015 0.08151,0.01987 0.179965,0.02388 0.270647,0.02388 l 1.305473,0 c 0.139335,-0.374958 0.214925,-0.771439 0.214925,-1.194031 0,-0.4225907 -0.07559,-0.8277945 -0.214925,-1.201987 C 10.295279,9.03177 10.222551,8.8681723 10.141293,8.7143176 10.054943,8.5464542 9.955407,8.3903078 9.830846,8.2367081 9.383801,7.6314799 8.744565,7.1728464 8,6.947159 7.716744,6.8608093 7.415403,6.8087163 7.108458,6.8038763 c -0.0484,-0.0094 -0.09826,-0.008 -0.151244,-0.008 l -0.716418,0 -2.642786,0 z m 6.153234,0 c 0.499518,0.3843811 0.918925,0.8740276 1.225871,1.4407918 l 1.424875,0 c 1.191101,0 2.157214,0.9740716 2.157214,2.1651699 0,1.191101 -0.965859,2.157214 -2.157214,2.157214 l -1.424875,0 -0.557215,0 -0.589054,0 -0.78806,0 C 8.663244,12.559092 8.3072,12.45682 8,12.288445 7.83672,12.197255 7.692354,12.094853 7.562189,11.970037 7.433043,11.850316 7.315932,11.716457 7.2199,11.572028 7.004147,11.236298 6.877612,10.834404 6.877612,10.401878 c 0,-0.4325247 0.12628,-0.8421235 0.342288,-1.1781073 -0.08661,-0.01962 -0.171494,-0.02388 -0.262686,-0.02388 l -1.305473,0 c -0.13908,0.3741918 -0.214925,0.7793966 -0.214925,1.2019863 0,0.422592 0.07585,0.819073 0.214925,1.194031 0.05273,0.167609 0.125453,0.331717 0.206966,0.485572 0.08635,0.167864 0.182256,0.323757 0.302487,0.477612 0.451375,0.604974 1.09959,1.063863 1.838806,1.289551 0.283511,0.08635 0.584088,0.137934 0.891542,0.143283 0.04789,0.0094 0.103355,0.008 0.151244,0.008 l 0.708458,0 2.650746,0 C 14.390129,13.999927 16,12.390822 16,10.401918 16,8.4132725 14.390129,6.7959563 12.40199,6.7959563 l -2.650746,0 z"
   id="path9"
   inkscape:connector-curvature="0"
   style="fill:#ffffff;fill-opacity:1" />
</svg>