<?xml version="1.0" encoding="UTF-8" standalone="no"?>
<svg
   xmlns:dc="http://purl.org/dc/elements/1.1/"
   xmlns:cc="http://creativecommons.org/ns#"
   xmlns:rdf="http://www.w3.org/1999/02/22-rdf-syntax-ns#"
   xmlns:svg="http://www.w3.org/2000/svg"
   xmlns="http://www.w3.org/2000/svg"
   xmlns:sodipodi="http://sodipodi.sourceforge.net/DTD/sodipodi-0.dtd"
   xmlns:inkscape="http://www.inkscape.org/namespaces/inkscape"
   version="1.1"
   x="0px"
   y="0px"
   width="44"
   height="44"
   viewBox="0 0 43.999999 44"
   enable-background="new 0 0 100 100"
   xml:space="preserve"
   id="svg2"
   inkscape:version="0.48.4 r9939"
   sodipodi:docname="icon_greenlight.svg"><metadata
   id="metadata29"><rdf:RDF><cc:Work
       rdf:about=""><dc:format>image/svg+xml</dc:format><dc:type
         rdf:resource="http://purl.org/dc/dcmitype/StillImage" /></cc:Work></rdf:RDF></metadata><defs
   id="defs27" /><sodipodi:namedview
   pagecolor="#ffffff"
   bordercolor="#666666"
   borderopacity="1"
   objecttolerance="10"
   gridtolerance="10"
   guidetolerance="10"
   inkscape:pageopacity="0"
   inkscape:pageshadow="2"
   inkscape:window-width="708"
   inkscape:window-height="480"
   id="namedview25"
   showgrid="false"
   fit-margin-top="0"
   fit-margin-left="0"
   fit-margin-right="0"
   fit-margin-bottom="0"
   inkscape:zoom="2.36"
   inkscape:cx="-10.066593"
   inkscape:cy="44.979001"
   inkscape:window-x="0"
   inkscape:window-y="0"
   inkscape:window-maximized="0"
   inkscape:current-layer="svg2" />
<g
   id="Layer_1"
   display="none"
   style="display:none"
   transform="translate(-9.4310002,-50.978999)">
	<g
   id="Captions"
   display="inline"
   style="display:inline">
	</g>
	<g
   id="Your_Icon"
   display="inline"
   style="display:inline">
		<path
   d="M 81.775,48.962 C 81.631,48.88 81.482,48.81 81.327,48.753 81.258,48.727 74.343,46.118 70.3,40.571 67.938,37.33 64.427,34.497 60.709,31.498 56.591,28.175 52.332,24.739 49.48,20.607 47.712,18.049 46.454,15.607 45.342,13.451 43.282,9.453 41.503,6 37.732,6 c -1.161,0 -2.308,0.361 -3.507,1.105 -2.508,1.555 -4.133,4.244 -4.575,7.571 -0.696,5.228 1.6,11.255 6.144,16.123 2.959,3.17 3.438,5.646 2.948,6.802 -0.51,1.207 -2.345,1.957 -4.907,2.007 -0.894,0.018 -1.799,0.024 -2.7,0.031 -6.439,0.049 -12.521,0.094 -15.917,3.63 -1.551,1.616 -2.295,3.715 -2.211,6.238 0.109,3.292 1.131,5.511 2.56,6.896 -0.546,0.865 -0.98,1.873 -1.193,3.037 -0.516,2.828 0.424,5.742 2.795,8.688 -0.722,1.229 -1.319,2.854 -1.18,4.774 0.188,2.574 1.619,4.892 4.262,6.9 0.042,1.883 0.476,4.744 2.369,7.316 1.969,2.676 4.956,4.322 8.878,4.895 1.739,0.256 3.571,0.381 5.603,0.381 4.923,0 10.096,-0.762 14.659,-1.434 3.879,-0.57 7.54,-1.109 10.442,-1.109 h 0.679 c 7.508,0 12.04,0 14.189,-6.324 0.221,-0.645 0.832,-2.024 1.539,-3.62 4.338,-9.786 11.599,-26.165 3.166,-30.945 z m -3.151,13.702 c -1.365,5.107 -3.938,10.91 -5.64,14.748 -0.832,1.875 -1.432,3.23 -1.739,4.135 -0.647,1.91 -0.731,2.152 -8.365,2.152 h -0.679 c -3.354,0 -7.23,0.572 -11.338,1.178 -4.567,0.67 -9.29,1.365 -13.764,1.365 -1.729,0 -3.271,-0.102 -4.711,-0.314 -4.005,-0.584 -5.399,-2.744 -5.835,-4.615 h 3.389 c 1.698,0 3.076,-1.377 3.076,-3.078 0,-1.696 -1.378,-3.075 -3.076,-3.075 h -5.616 c -1.339,-0.941 -2.133,-1.9 -2.199,-2.685 -0.043,-0.492 0.194,-1.004 0.462,-1.41 H 35.26 c 1.699,0 3.077,-1.377 3.077,-3.075 0,-1.699 -1.378,-3.078 -3.077,-3.078 H 22.513 c -1.542,-1.705 -2.283,-3.226 -2.089,-4.347 0.188,-1.094 1.309,-1.985 2.038,-2.434 H 38.19 c 1.699,0 3.077,-1.377 3.077,-3.076 0,-1.699 -1.378,-3.076 -3.077,-3.076 H 22.442 c -0.188,-0.039 -0.38,-0.065 -0.575,-0.065 -0.343,0 -0.693,0.063 -1.039,0.19 -0.002,0 -0.182,0.045 -0.419,0.045 -0.287,0 -1.158,0 -1.253,-2.843 -0.035,-1.072 0.249,-1.511 0.5,-1.772 1.598,-1.664 7.102,-1.705 11.524,-1.738 0.927,-0.007 1.856,-0.014 2.774,-0.031 5.138,-0.102 8.948,-2.202 10.455,-5.763 1.662,-3.93 0.161,-8.813 -4.118,-13.398 -3.886,-4.164 -4.895,-8.47 -4.543,-11.112 0.113,-0.85 0.488,-2.39 1.72,-3.154 0.035,-0.022 0.068,-0.042 0.099,-0.059 0.603,0.69 1.537,2.502 2.306,3.995 1.137,2.205 2.552,4.951 4.543,7.834 3.36,4.864 8.18,8.752 12.43,12.182 3.393,2.738 6.598,5.323 8.481,7.909 4.604,6.319 11.844,9.516 13.521,10.192 0.646,0.547 1.238,2.802 -0.224,8.273 z"
   id="path7"
   inkscape:connector-curvature="0" />
	</g>
</g>
<g
   id="Layer_4"
   display="none"
   style="display:none"
   transform="translate(-9.4310002,-50.978999)">
	<g
   display="inline"
   id="g10"
   style="display:inline">
		<path
   d="m 15.573,68.955 c -0.333,1.031 -0.504,2.113 -0.504,3.232 0,3.787 1.936,7.028 4.753,8.226 -0.34,1.031 -0.511,2.121 -0.511,3.247 0,4.906 3.145,8.751 7.161,8.751 h 9.244 c 0.413,0 0.84,-0.049 1.266,-0.14 0.218,0.055 0.44,0.077 0.656,0.077 h 11.521 c 7.203,0 14.521,-4.506 19.677,-12.08 h 11.817 c 1.671,0 3.031,-1.358 3.033,-3.029 L 83.75,46.687 c 0.003,-0.812 -0.313,-1.577 -0.889,-2.151 -0.569,-0.573 -1.333,-0.89 -2.146,-0.89 H 67.4 c -2.918,-2.17 -9.451,-7.135 -13.622,-11.077 -3.505,-3.309 -6.245,-4.995 -8.249,-6.225 -1.3,-0.801 -2.237,-1.377 -2.881,-2.071 -4.288,-4.616 -3.807,-8.956 -3.783,-9.139 0.123,-0.875 -0.145,-1.769 -0.746,-2.438 -0.564,-0.632 -1.407,-1.001 -2.307,-1.009 -3.55,0.105 -10.437,2.63 -11.418,11.431 -0.51,4.608 2.004,10.4 7.484,17.241 h -9.653 c -4.016,0 -7.162,3.843 -7.162,8.749 0,1.193 0.196,2.365 0.571,3.452 -2.786,1.217 -4.695,4.445 -4.695,8.204 0.002,3.78 1.85,6.957 4.634,8.191 z m 6.616,-0.568 h 16.25 c 1.038,0.038 2.18,1.646 2.18,3.799 0,2.178 -1.17,3.802 -2.216,3.802 H 22.227 c -1.045,0 -2.216,-1.624 -2.216,-3.802 0,-2.154 1.142,-3.761 2.178,-3.799 z m 2.065,15.273 c 0,-2.174 1.171,-3.799 2.216,-3.799 h 9.244 c 0.075,0 0.154,0.025 0.23,0.043 0.108,0.17 0.246,0.329 0.419,0.457 0.606,0.451 1.063,1.081 1.369,1.802 0.125,0.452 0.198,0.957 0.198,1.497 0,2.177 -1.169,3.805 -2.216,3.805 H 26.47 c -1.045,0 -2.216,-1.628 -2.216,-3.805 z M 18.102,64.566 c -1.049,0 -2.219,-1.629 -2.219,-3.802 0,-2.178 1.17,-3.805 2.219,-3.805 h 22.115 c 1.046,0 2.218,1.627 2.218,3.805 0,2.173 -1.171,3.802 -2.218,3.802 h -1.704 c -0.038,0 -0.074,-0.008 -0.11,-0.008 H 22.227 c -0.038,0 -0.075,0.008 -0.11,0.008 h -4.015 z m 1.909,-15.457 c 0,-2.176 1.168,-3.803 2.216,-3.803 h 16.176 c 1.046,0 2.216,1.627 2.216,3.803 0,2.174 -1.17,3.802 -2.216,3.802 H 22.227 c -1.045,0 -2.216,-1.628 -2.216,-3.802 z m 9.301,-25.445 c 0.477,-4.287 2.896,-5.961 4.673,-6.617 0.26,2.536 1.321,6.585 5.04,10.592 1.105,1.19 2.407,1.99 3.917,2.918 1.921,1.182 4.313,2.653 7.439,5.606 4.829,4.56 12.614,10.378 14.883,12.053 0.33,0.242 0.726,0.375 1.135,0.375 H 78.805 L 78.748,75.323 H 67.122 c -0.85,0 -1.568,0.552 -1.817,1.316 -3.351,5.264 -9.284,10.764 -16.145,10.764 h -7.822 c 0.412,-1.023 0.632,-2.137 0.632,-3.276 0,-1.146 -0.221,-2.259 -0.629,-3.282 -0.104,-0.336 -0.224,-0.658 -0.361,-0.967 2.575,-1.355 4.309,-4.169 4.309,-7.423 0,-1.762 -0.513,-3.434 -1.433,-4.814 1.299,-0.954 2.3,-2.332 2.859,-3.929 2.178,1.99 5.112,3.484 9.032,4.045 0.09,0.015 0.182,0.021 0.271,0.021 0.937,0 1.755,-0.687 1.888,-1.64 0.149,-1.048 -0.578,-2.014 -1.62,-2.163 -8.705,-1.243 -10.85,-8.071 -11.289,-12.664 0.176,-0.704 0.289,-1.434 0.289,-2.188 0,-0.729 -0.115,-1.427 -0.281,-2.103 0.052,-0.565 -0.146,-1.097 -0.511,-1.484 -1.056,-2.351 -3.095,-4.104 -5.572,-4.554 -6.451,-7.061 -10.034,-13.505 -9.61,-17.318 z"
   id="path12"
   inkscape:connector-curvature="0"
   style="fill:#000000" />
	</g>
</g>
<g
   id="Layer_2"
   display="none"
   style="display:none"
   transform="translate(-9.4310002,-50.978999)">
	<g
   display="inline"
   id="g15"
   style="display:inline">
		<path
   d="m 33.985,17.047 c 0.057,2.453 1.132,5.487 2.307,7.37 1.13,1.811 4.206,4.94 7.594,6.725 3.388,1.785 7.607,6.256 11.857,9.687 3.393,2.738 7.523,6.243 10.132,7.422 2.609,1.179 11.927,0.229 12.846,1.025 1.654,1.433 1.365,7.918 -0.097,13.389 -1.365,5.107 -5.183,9.229 -5.64,14.748 -0.352,4.238 -2.375,4.287 -9.589,4.287 -0.169,0 -0.341,0 -0.516,0 H 62.2 c -3.354,0 -7.23,2.572 -11.338,3.178 -2.392,0.351 -5.087,0.435 -8.538,0.435 -3.14,0 -6.904,-0.069 -11.638,-0.069 -3.125,0 -4.134,-1.604 -4.134,-3.93 1.759,0 7.389,0 7.389,0 1.698,0 3.076,-1.377 3.076,-3.078 0,-1.696 -1.378,-3.075 -3.076,-3.075 0,0 -7.151,0 -9.275,0 -1.472,0 -2.531,-1.22 -2.531,-2.533 0,-1.004 0.313,-1.198 0.677,-1.562 H 37.26 c 1.699,0 3.077,-1.377 3.077,-3.075 0,-1.699 -1.378,-3.078 -3.077,-3.078 0,0 -10.497,0 -12.588,0 -2.812,0 -4.248,-1.608 -4.248,-3.548 0,-1.94 1.031,-3.232 1.031,-3.232 H 38.19 c 1.699,0 3.077,-1.377 3.077,-3.076 0,-1.699 -1.378,-3.076 -3.077,-3.076 0,0 -14.775,0 -15.748,0 -1.833,0 -3.286,-1.213 -3.286,-3.088 0,-1.875 1.344,-3.096 3.286,-3.096 2.496,0 6.591,0 11.512,0 4.921,0 6.775,-2.565 4.968,-4.812 -3.886,-4.164 -9.519,-11.078 -9.638,-16.421 -0.128,-5.72 2.278,-6.876 4.701,-7.517 m -10e-4,-6 c -0.512,0 -1.027,0.065 -1.534,0.199 -6.244,1.651 -9.328,6.176 -9.165,13.449 0.098,4.354 2.359,9.416 6.738,15.1 h -7.582 c -5.294,0 -9.286,3.91 -9.286,9.096 0,2.631 1.087,4.967 2.854,6.611 -0.714,1.22 -1.586,3.246 -1.586,5.861 0,2.736 1.114,5.135 2.964,6.844 -0.682,1.016 -1.252,2.424 -1.252,4.419 0,3.259 1.836,6.098 4.528,7.534 -0.072,0.373 -0.11,0.758 -0.11,1.152 0,5.939 4.073,9.93 10.134,9.93 2.589,0 4.886,0.021 6.947,0.04 1.712,0.015 3.265,0.029 4.691,0.029 3.61,0 6.591,-0.085 9.409,-0.498 2.554,-0.377 4.808,-1.231 6.796,-1.986 1.325,-0.503 2.974,-1.128 3.671,-1.128 h 0.679 0.262 0.254 c 4.045,0 6.967,0 9.466,-0.933 3.676,-1.373 5.729,-4.354 6.103,-8.859 0.167,-2.02 1.208,-4.058 2.413,-6.418 1.081,-2.116 2.306,-4.515 3.044,-7.275 0.856,-3.207 1.36,-6.631 1.419,-9.642 0.092,-4.743 -0.922,-7.867 -3.19,-9.833 -2.102,-1.82 -4.519,-1.824 -8.905,-1.832 -1.604,-0.003 -4.529,-0.008 -5.591,-0.219 -1.637,-0.835 -4.989,-3.562 -7.238,-5.392 -0.478,-0.389 -0.947,-0.771 -1.404,-1.139 -1.388,-1.12 -2.839,-2.421 -4.242,-3.679 -2.954,-2.648 -5.745,-5.15 -8.586,-6.646 -2.414,-1.272 -4.7,-3.631 -5.301,-4.594 -0.73,-1.171 -1.371,-3.155 -1.398,-4.333 -0.043,-1.837 -0.925,-3.553 -2.394,-4.657 -1.053,-0.787 -2.321,-1.201 -3.608,-1.201 l 0,0 z"
   id="path17"
   inkscape:connector-curvature="0" />
	</g>
</g>
<g
   id="Final"
   transform="matrix(0.49016878,0,0,0.49016878,-2.5073197,-2.5557403)"
   style="fill:#ffffff;fill-opacity:1">
	<path
   d="m 32.325,11.214 c 0.065,2.794 1.29,6.251 2.628,8.395 1.288,2.063 4.791,5.628 8.651,7.661 3.859,2.034 8.666,7.127 13.507,11.035 3.864,3.119 8.57,7.111 11.541,8.455 2.972,1.343 13.587,0.261 14.634,1.167 1.884,1.632 1.556,9.019 -0.11,15.251 -1.555,5.818 -5.903,10.513 -6.425,16.802 -0.399,4.828 -2.705,4.883 -10.926,4.883 -0.192,0 -0.387,0 -0.585,0 h -0.772 c -3.82,0 -8.236,2.931 -12.916,3.62 -2.725,0.399 -5.796,0.495 -9.728,0.495 -3.576,0 -7.863,-0.079 -13.255,-0.079 -3.56,0 -4.71,-1.827 -4.71,-4.477 2.004,0 8.417,0 8.417,0 1.935,0 3.504,-1.568 3.504,-3.506 0,-1.933 -1.569,-3.503 -3.504,-3.503 0,0 -8.146,0 -10.567,0 -1.677,0 -2.882,-1.391 -2.882,-2.887 0,-1.144 0.357,-1.364 0.771,-1.779 h 16.458 c 1.936,0 3.505,-1.567 3.505,-3.502 0,-1.937 -1.57,-3.507 -3.505,-3.507 0,0 -11.958,0 -14.34,0 -3.204,0 -4.84,-1.833 -4.84,-4.041 0,-2.21 1.175,-3.683 1.175,-3.683 h 19.064 c 1.935,0 3.505,-1.569 3.505,-3.505 0,-1.936 -1.57,-3.504 -3.505,-3.504 0,0 -16.831,0 -17.939,0 -2.088,0 -3.744,-1.381 -3.744,-3.518 0,-2.137 1.531,-3.526 3.744,-3.526 2.843,0 7.508,0 13.114,0 5.606,0 7.718,-2.923 5.66,-5.483 -4.427,-4.743 -10.843,-12.619 -10.979,-18.706 -0.147,-6.511 2.594,-7.829 5.354,-8.558 m -0.001,-6 c -0.512,0 -1.027,0.065 -1.533,0.199 -6.691,1.769 -9.995,6.646 -9.82,14.495 0.115,5.121 2.992,11.179 8.564,18.055 h -10.36 c -5.555,0 -9.744,4.095 -9.744,9.526 0,3 1.353,5.636 3.508,7.367 -0.743,1.118 -2.064,3.565 -2.064,6.842 0,3.192 1.373,5.905 3.649,7.702 -0.867,1.075 -1.699,2.67 -1.699,5.127 0,3.624 2.179,6.749 5.296,8.13 -0.172,0.559 -0.264,1.151 -0.264,1.766 0,6.364 4.204,10.477 10.71,10.477 2.944,0 5.587,0.024 7.92,0.045 1.947,0.018 3.713,0.034 5.335,0.034 4.077,0 7.439,-0.096 10.598,-0.559 2.82,-0.415 5.344,-1.373 7.569,-2.218 1.654,-0.627 3.529,-1.339 4.477,-1.339 h 0.772 0.297 0.288 c 4.689,0 7.788,0 10.493,-1.01 3.858,-1.44 6.016,-4.595 6.412,-9.378 0.204,-2.465 1.425,-4.855 2.838,-7.623 1.212,-2.374 2.586,-5.064 3.404,-8.125 0.945,-3.536 1.524,-7.467 1.588,-10.783 0.1,-5.135 -0.964,-8.488 -3.346,-10.552 -2.159,-1.87 -4.646,-1.875 -9.601,-1.883 -1.926,-0.003 -5.465,-0.01 -6.642,-0.288 -1.92,-0.939 -5.715,-4.027 -8.506,-6.297 -0.54,-0.439 -1.07,-0.871 -1.587,-1.288 -1.6,-1.291 -3.262,-2.781 -4.87,-4.222 -3.324,-2.98 -6.465,-5.795 -9.608,-7.452 -2.884,-1.519 -5.631,-4.364 -6.359,-5.53 C 39.125,14.969 38.354,12.566 38.32,11.075 38.277,9.239 37.395,7.522 35.926,6.418 34.879,5.628 33.611,5.214 32.324,5.214 l 0,0 z"
   id="path20"
   inkscape:connector-curvature="0"
   style="fill:#ffffff;fill-opacity:1" />
</g>
<g
   id="Layer_3"
   display="none"
   style="display:none"
   transform="translate(-9.4310002,-50.978999)">
	<path
   display="inline"
   stroke-miterlimit="10"
   d="m 21.271,13.189 c 0.592,-5.311 3.588,-7.386 5.789,-8.198 0.322,3.142 1.637,8.158 6.245,13.121 1.369,1.474 2.982,2.466 4.852,3.615 2.381,1.465 5.344,3.287 9.217,6.945 5.982,5.649 15.625,12.856 18.438,14.932 0.408,0.3 0.898,0.463 1.404,0.463 H 82.583 L 82.515,77.184 H 68.111 c -1.051,0 -1.943,0.684 -2.252,1.631 -4.15,6.52 -11.5,13.334 -20,13.334 H 36.17 c 0.51,-1.268 0.783,-2.647 0.783,-4.059 0,-1.421 -0.273,-2.799 -0.779,-4.066 -0.129,-0.416 -0.277,-0.815 -0.447,-1.198 3.189,-1.679 5.338,-5.164 5.338,-9.193 0,-2.183 -0.635,-4.254 -1.775,-5.966 1.609,-1.182 2.85,-2.889 3.541,-4.867 2.699,2.467 6.334,4.317 11.189,5.012 0.111,0.017 0.225,0.025 0.338,0.025 1.16,0 2.172,-0.85 2.338,-2.031 0.186,-1.296 -0.717,-2.494 -2.008,-2.679 -10.781,-1.54 -13.439,-9.999 -13.984,-15.688 0.219,-0.873 0.357,-1.777 0.357,-2.711 0,-0.903 -0.143,-1.768 -0.348,-2.605 0.064,-0.7 -0.182,-1.358 -0.633,-1.838 C 38.771,37.373 36.246,35.2 33.178,34.644 25.185,25.896 20.746,17.911 21.271,13.189 z"
   id="path23"
   inkscape:connector-curvature="0"
   style="fill:none;stroke:#000000;stroke-miterlimit:10;display:inline" />
</g>
</svg>