<?xml version="1.0" encoding="UTF-8" standalone="no"?>
<!-- Generator: Adobe Illustrator 15.0.0, SVG Export Plug-In . SVG Version: 6.00 Build 0)  -->

<svg
   xmlns:dc="http://purl.org/dc/elements/1.1/"
   xmlns:cc="http://creativecommons.org/ns#"
   xmlns:rdf="http://www.w3.org/1999/02/22-rdf-syntax-ns#"
   xmlns:svg="http://www.w3.org/2000/svg"
   xmlns="http://www.w3.org/2000/svg"
   xmlns:sodipodi="http://sodipodi.sourceforge.net/DTD/sodipodi-0.dtd"
   xmlns:inkscape="http://www.inkscape.org/namespaces/inkscape"
   version="1.1"
   id="Layer_1"
   x="0px"
   y="0px"
   width="44"
   height="44"
   viewBox="0 0 44 44.000002"
   enable-background="new 0 0 100 94.076"
   xml:space="preserve"
   inkscape:version="0.48.4 r9939"
   sodipodi:docname="icon_amazon.svg"><metadata
   id="metadata3818"><rdf:RDF><cc:Work
       rdf:about=""><dc:format>image/svg+xml</dc:format><dc:type
         rdf:resource="http://purl.org/dc/dcmitype/StillImage" /><dc:title /></cc:Work></rdf:RDF></metadata><defs
   id="defs3816" /><sodipodi:namedview
   pagecolor="#ffffff"
   bordercolor="#666666"
   borderopacity="1"
   objecttolerance="10"
   gridtolerance="10"
   guidetolerance="10"
   inkscape:pageopacity="0"
   inkscape:pageshadow="2"
   inkscape:window-width="833"
   inkscape:window-height="480"
   id="namedview3814"
   showgrid="false"
   fit-margin-top="0"
   fit-margin-left="0"
   fit-margin-right="0"
   fit-margin-bottom="0"
   inkscape:zoom="2.5086102"
   inkscape:cx="-66.326255"
   inkscape:cy="46.996998"
   inkscape:window-x="0"
   inkscape:window-y="0"
   inkscape:window-maximized="0"
   inkscape:current-layer="Layer_1" />
<g
   id="g3806"
   transform="matrix(0.46826446,0,0,0.46826446,-1.2918361,-0.03324678)"
   style="fill:#ffffff;fill-opacity:1">
	<path
   clip-rule="evenodd"
   d="m 84.666,83.334 c -9.469,6.984 -23.192,10.701 -35.01,10.701 -16.566,0 -31.48,-6.123 -42.769,-16.316 -0.886,-0.799 -0.095,-1.893 0.97,-1.275 12.177,7.09 27.236,11.357 42.792,11.357 10.494,0 22.029,-2.178 32.638,-6.68 1.605,-0.68 2.945,1.057 1.379,2.213 z"
   id="path3808"
   inkscape:connector-curvature="0"
   style="fill:#ffffff;fill-opacity:1;fill-rule:evenodd" />
	<path
   clip-rule="evenodd"
   d="m 88.604,78.836 c -1.21,-1.553 -8.003,-0.736 -11.055,-0.371 -0.924,0.111 -1.065,-0.695 -0.231,-1.279 5.417,-3.809 14.298,-2.711 15.328,-1.436 1.04,1.289 -0.271,10.188 -5.351,14.438 -0.781,0.654 -1.522,0.305 -1.179,-0.557 1.144,-2.856 3.7,-9.244 2.488,-10.795 z"
   id="path3810"
   inkscape:connector-curvature="0"
   style="fill:#ffffff;fill-opacity:1;fill-rule:evenodd" />
	<path
   clip-rule="evenodd"
   d="m 54.796,41.696 c 0,5.078 0.122,9.308 -2.438,13.824 -2.074,3.668 -5.364,5.926 -9.022,5.926 -4.998,0 -7.923,-3.812 -7.923,-9.453 0,-11.098 9.956,-13.116 19.383,-13.116 v 2.819 z m 13.14,31.773 c -0.862,0.773 -2.107,0.828 -3.081,0.303 -4.328,-3.598 -5.104,-5.26 -7.47,-8.684 -7.151,7.287 -12.219,9.473 -21.485,9.473 -10.972,0 -19.505,-6.771 -19.505,-20.312 0,-10.578 5.729,-17.772 13.896,-21.296 7.071,-3.104 16.946,-3.668 24.504,-4.517 v -1.691 c 0,-3.104 0.243,-6.772 -1.583,-9.459 -1.587,-2.403 -4.635,-3.391 -7.316,-3.391 -4.97,0 -9.39,2.545 -10.474,7.838 -0.227,1.176 -1.083,2.336 -2.264,2.397 L 20.528,22.763 C 19.461,22.523 18.274,21.665 18.582,20.035 21.485,4.698 35.322,0.071 47.724,0.071 c 6.343,0 14.629,1.691 19.626,6.486 6.341,5.927 5.733,13.837 5.733,22.446 v 20.298 c 0,6.111 2.536,8.789 4.916,12.082 0.832,1.184 1.02,2.594 -0.04,3.459 -2.663,2.232 -7.396,6.338 -9.995,8.654 l -0.028,-0.027 z"
   id="path3812"
   inkscape:connector-curvature="0"
   style="fill:#ffffff;fill-opacity:1;fill-rule:evenodd" />
</g>
</svg>