<?xml version="1.0" encoding="UTF-8" standalone="no"?>
<!-- Generator: Adobe Illustrator 17.0.0, SVG Export Plug-In . SVG Version: 6.00 Build 0)  -->

<svg
   xmlns:dc="http://purl.org/dc/elements/1.1/"
   xmlns:cc="http://creativecommons.org/ns#"
   xmlns:rdf="http://www.w3.org/1999/02/22-rdf-syntax-ns#"
   xmlns:svg="http://www.w3.org/2000/svg"
   xmlns="http://www.w3.org/2000/svg"
   xmlns:sodipodi="http://sodipodi.sourceforge.net/DTD/sodipodi-0.dtd"
   xmlns:inkscape="http://www.inkscape.org/namespaces/inkscape"
   version="1.1"
   id="Layer_1"
   x="0px"
   y="0px"
   width="44"
   height="44"
   viewBox="0 0 43.999998 43.999999"
   enable-background="new 0 0 317.605 49.283"
   xml:space="preserve"
   inkscape:version="0.48.4 r9939"
   sodipodi:docname="ico_humble.svg"><metadata
   id="metadata35"><rdf:RDF><cc:Work
       rdf:about=""><dc:format>image/svg+xml</dc:format><dc:type
         rdf:resource="http://purl.org/dc/dcmitype/StillImage" /><dc:title></dc:title></cc:Work></rdf:RDF></metadata><defs
   id="defs33">
	

		
	</defs><sodipodi:namedview
   pagecolor="#ffffff"
   bordercolor="#666666"
   borderopacity="1"
   objecttolerance="10"
   gridtolerance="10"
   guidetolerance="10"
   inkscape:pageopacity="0"
   inkscape:pageshadow="2"
   inkscape:window-width="1920"
   inkscape:window-height="1018"
   id="namedview31"
   showgrid="false"
   fit-margin-top="0"
   fit-margin-left="0"
   fit-margin-right="0"
   fit-margin-bottom="0"
   inkscape:zoom="2.5469691"
   inkscape:cx="-91.507448"
   inkscape:cy="24.628918"
   inkscape:window-x="-8"
   inkscape:window-y="-8"
   inkscape:window-maximized="1"
   inkscape:current-layer="Layer_1" />















<path
   id="rect4861-4"
   style="fill:#ffffff;fill-opacity:1;stroke:none"
   d="m 43.999999,43.760894 0,-3.52508 0,-4.30844 0,-7.42961 c 0,-1.95362 -1.5719,-3.53732 -3.5251,-3.53732 l -12.1419,0 c -1.9532,0 -3.5251,1.5837 -3.5251,3.53732 l 0,11.73804 c 0,1.95362 1.5719,3.52509 3.5251,3.52509 l 7.8335,0 4.3084,0 3.5251,0 z m 0,-43.521789 -3.5251,0 -4.3084,0 -7.4296,0 c -1.9536,0 -3.5373,1.57188 -3.5373,3.52508 l 0,12.14197 c 0,1.95321 1.583699,3.52508 3.5373,3.52508 l 11.738,0 c 1.9536,0 3.5251,-1.57187 3.5251,-3.52508 l 0,-7.83352 0,-4.30845 0,-3.52508 z m -43.7195995,43.521789 3.5251,0 4.3084,0 7.4295985,0 c 1.9536,0 3.5374,-1.57187 3.5374,-3.52508 l 0,-12.14197 c 0,-1.9532 -1.5838,-3.52508 -3.5374,-3.52508 l -11.7379985,0 c -1.9536,0 -3.5251,1.57188 -3.5251,3.52508 l 0,7.83353 0,4.30844 0,3.52508 z M -5e-7,0.377405 l 0,3.52508 0,4.30844 0,7.42961 c 0,1.95362 1.5719,3.53733 3.5251,3.53733 l 12.1419995,0 c 1.9532,0 3.524999,-1.58371 3.524999,-3.53733 l 0,-11.73805 c 0,-1.95362 -1.5718,-3.52508 -3.524999,-3.52508 l -7.8335995,0 -4.3084,0 -3.5251,0 z"
   inkscape:connector-curvature="0" /></svg>