<?xml version="1.0" encoding="UTF-8" standalone="no"?>
<!-- Generator: Adobe Illustrator 17.0.0, SVG Export Plug-In . SVG Version: 6.00 Build 0)  -->

<svg
   xmlns:dc="http://purl.org/dc/elements/1.1/"
   xmlns:cc="http://creativecommons.org/ns#"
   xmlns:rdf="http://www.w3.org/1999/02/22-rdf-syntax-ns#"
   xmlns:svg="http://www.w3.org/2000/svg"
   xmlns="http://www.w3.org/2000/svg"
   xmlns:sodipodi="http://sodipodi.sourceforge.net/DTD/sodipodi-0.dtd"
   xmlns:inkscape="http://www.inkscape.org/namespaces/inkscape"
   version="1.1"
   id="Layer_1"
   x="0px"
   y="0px"
   width="44"
   height="44"
   viewBox="0 0 43.999998 43.999999"
   enable-background="new 0 0 317.605 49.283"
   xml:space="preserve"
   inkscape:version="0.48.4 r9939"
   sodipodi:docname="ico_humble.svg"><metadata
   id="metadata35"><rdf:RDF><cc:Work
       rdf:about=""><dc:format>image/svg+xml</dc:format><dc:type
         rdf:resource="http://purl.org/dc/dcmitype/StillImage" /><dc:title></dc:title></cc:Work></rdf:RDF></metadata><defs
   id="defs33">
	

		
	</defs><sodipodi:namedview
   pagecolor="#ffffff"
   bordercolor="#666666"
   borderopacity="1"
   objecttolerance="10"
   gridtolerance="10"
   guidetolerance="10"
   inkscape:pageopacity="0"
   inkscape:pageshadow="2"
   inkscape:window-width="816"
   inkscape:window-height="480"
   id="namedview31"
   showgrid="false"
   fit-margin-top="0"
   fit-margin-left="0"
   fit-margin-right="0"
   fit-margin-bottom="0"
   inkscape:zoom="2.5469691"
   inkscape:cx="13.654239"
   inkscape:cy="24.628918"
   inkscape:window-x="0"
   inkscape:window-y="0"
   inkscape:window-maximized="0"
   inkscape:current-layer="Layer_1" />















<path
   style="fill:#ffffff;fill-opacity:1;stroke:none"
   d="m 39.025382,1.015e-5 c -1.69036,0 -3.13644,1.02733975 -3.73463,2.47996965 l -29.9547697,0 c -1.22519,-0.003 -4.2732999,1.6116 -4.2817999,3.90403 L 0.93917236,39.829459 c -0.007,1.58825 2.21182994,4.16972 4.03727994,4.05196 l 33.0885097,0.11859 c 1.46722,-9.4e-4 4.27745,-1.74729 4.27446,-3.21451 l 0.11977,-22.175149 c -0.005,-1.6995 -2.10059,-3.31758 -3.68152,-3.31842 l -20.99046,-0.35576 c -1.58581,-0.003 -4.04377,2.33288 -4.04463,3.9187 l -0.11858,8.536659 c -0.11789,1.34133 2.68132,3.67304 4.25978,3.56294 l 7.56778,0.22864 c 0.60949,1.4283 2.04007,2.43595 3.71263,2.43595 2.22679,0 4.03546,-1.77538 4.03546,-3.96942 0,-2.19405 -1.80867,-3.96943 -4.03546,-3.96943 -1.56899,0 -2.92263,0.88359 -3.58789,2.17181 l -8.61388,-0.0954 0,-9.252209 22.16569,0 0.10272,22.283079 -35.0644897,0 0.33018,-34.9690991 30.9629897,0 c 0.67423,1.26117 2.01711,2.12045 3.56587,2.12045 2.22679,0 4.03546,-1.77538 4.03546,-3.96942 0,-2.19405 -1.80867,-3.96942975 -4.03546,-3.96942975 z m 0,2.19381975 c 0.99463,0 1.80496,0.79561 1.80496,1.77561 0,0.97999 -0.81033,1.7756 -1.80496,1.7756 -0.99462,0 -1.79761,-0.79561 -1.79761,-1.7756 0,-0.98 0.80299,-1.77561 1.79761,-1.77561 z m -9.86119,25.6802091 c 0.99462,0 1.80495,0.7956 1.80495,1.7756 0,0.98 -0.81033,1.7756 -1.80495,1.7756 -0.99463,0 -1.79762,-0.7956 -1.79762,-1.7756 0,-0.98 0.80299,-1.7756 1.79762,-1.7756 z"
   id="path6572"
   inkscape:connector-curvature="0"
   sodipodi:nodetypes="sccccccccccccccsssccccccccsssssssssssss" /></svg>