<?xml version="1.0" encoding="UTF-8" standalone="no"?>
<!-- Generator: Adobe Illustrator 17.0.0, SVG Export Plug-In . SVG Version: 6.00 Build 0)  -->

<svg
   xmlns:dc="http://purl.org/dc/elements/1.1/"
   xmlns:cc="http://creativecommons.org/ns#"
   xmlns:rdf="http://www.w3.org/1999/02/22-rdf-syntax-ns#"
   xmlns:svg="http://www.w3.org/2000/svg"
   xmlns="http://www.w3.org/2000/svg"
   xmlns:sodipodi="http://sodipodi.sourceforge.net/DTD/sodipodi-0.dtd"
   xmlns:inkscape="http://www.inkscape.org/namespaces/inkscape"
   version="1.1"
   id="Layer_1"
   x="0px"
   y="0px"
   width="44"
   height="44"
   viewBox="0 0 43.999998 43.999999"
   enable-background="new 0 0 317.605 49.283"
   xml:space="preserve"
   inkscape:version="0.48.4 r9939"
   sodipodi:docname="icon_humble.svg"><metadata
   id="metadata35"><rdf:RDF><cc:Work
       rdf:about=""><dc:format>image/svg+xml</dc:format><dc:type
         rdf:resource="http://purl.org/dc/dcmitype/StillImage" /><dc:title /></cc:Work></rdf:RDF></metadata><defs
   id="defs33">
	

		
	</defs><sodipodi:namedview
   pagecolor="#ffffff"
   bordercolor="#666666"
   borderopacity="1"
   objecttolerance="10"
   gridtolerance="10"
   guidetolerance="10"
   inkscape:pageopacity="0"
   inkscape:pageshadow="2"
   inkscape:window-width="816"
   inkscape:window-height="480"
   id="namedview31"
   showgrid="false"
   fit-margin-top="0"
   fit-margin-left="0"
   fit-margin-right="0"
   fit-margin-bottom="0"
   inkscape:zoom="2.5469691"
   inkscape:cx="-44.588936"
   inkscape:cy="24.628918"
   inkscape:window-x="0"
   inkscape:window-y="0"
   inkscape:window-maximized="0"
   inkscape:current-layer="Layer_1" />










<path
   clip-rule="evenodd"
   d="m 42.175773,21.480954 c -0.554818,3.107679 -3.122604,13.944175 -9.307237,13.944175 -6.184633,0 3.339439,-33.9992405 3.339439,-33.9992405 h -6.432194 c 0,0 -2.726681,7.009836 -4.448195,16.1801225 h -5.493745 c 0.143971,-1.885676 0.212446,-3.794178 0.18172,-5.691267 C 19.768878,-3.1812023 10.986611,-0.33600776 7.028271,3.1298449 3.2648186,6.4236338 0.2844312,12.290475 -4.688e-7,16.901077 0.32656923,16.981842 2.9461498,17.606889 2.9461498,17.606889 c 0,0 1.9787314,-9.0324602 8.1642422,-9.0324602 6.184633,0 -3.3403162,34.1906172 -3.3403162,34.1906172 h 6.4321932 c 0,0 3.262186,-8.488179 4.902057,-18.97089 h 5.287444 c -0.3055,2.712635 -0.47493,5.509547 -0.430159,8.290656 0.247561,15.096826 9.029828,12.250753 12.988169,8.785778 3.95834,-3.464974 7.050218,-9.775143 7.050218,-14.477923 -0.342371,-8.78e-4 -1.394944,-4.530715 -1.824225,-4.911713 z"
   id="path21"
   inkscape:connector-curvature="0"
   style="fill:#ffffff;fill-opacity:1;fill-rule:evenodd" />




</svg>