<svg id="Icon_Layer" data-name="Icon Layer" xmlns="http://www.w3.org/2000/svg" width="44.06" height="568.33" viewBox="0 0 44.06 568.33"><defs><style>.cls-1{fill:#fff;}</style></defs><title>icons</title><path id="Twitter" class="cls-1" d="M44.06,536.8a18.13,18.13,0,0,1-5.19,1.4,9,9,0,0,0,4-5,18.72,18.72,0,0,1-5.69,2.2,8.81,8.81,0,0,0-6.59-2.89,8.94,8.94,0,0,0-9,9,14.89,14.89,0,0,0,.2,2.1,25.73,25.73,0,0,1-18.56-9.38,8.64,8.64,0,0,0-1.2,4.49,9,9,0,0,0,4,7.48A9.24,9.24,0,0,1,2,545.09v0.1a9.1,9.1,0,0,0,7.18,8.88,8.73,8.73,0,0,1-2.39.3,9.83,9.83,0,0,1-1.7-.2,9,9,0,0,0,8.38,6.29,18.29,18.29,0,0,1-11.17,3.89,16.91,16.91,0,0,1-2.2-.1,25.09,25.09,0,0,0,13.77,4.09c16.56,0,25.64-13.77,25.64-25.64v-1.2a17.08,17.08,0,0,0,4.59-4.69" transform="translate(0.01)"/><path id="Steam" class="cls-1" d="M41.25,506a3.32,3.32,0,0,1-3.34,3.2,3.19,3.19,0,0,1,0-6.38A3.32,3.32,0,0,1,41.25,506Zm-3.34-5.93A6,6,0,0,0,32,506l-3.73,5.32a2.66,2.66,0,0,0-.39,0,5.29,5.29,0,0,0-2.35.63L8.8,505.15a4.45,4.45,0,1,0-4.36,5.4,4.27,4.27,0,0,0,2.28-.63l16.88,6.75a4.25,4.25,0,0,0,4.32,3.43,4.44,4.44,0,0,0,4.32-3.94L37.92,512A6,6,0,1,0,37.92,500.08Zm-32.2,3.83a2.6,2.6,0,0,0-1.94,4.83l1.37,0.55a2.69,2.69,0,0,1-.71.08,3.27,3.27,0,1,1,2.9-4.81Zm22.19,15A3.12,3.12,0,0,1,25,517.25a10.9,10.9,0,0,0,1.57.69,2.58,2.58,0,0,0,3.34-1.45,2.74,2.74,0,0,0-1.37-3.41l-1.37-.55a5.32,5.32,0,0,1,.78-0.08A3.19,3.19,0,0,1,31,515.72,3.11,3.11,0,0,1,27.91,518.92Zm10-8.89a4,4,0,0,1,0-8A4,4,0,1,1,37.92,510Z" transform="translate(0.01)"/><path id="Sellbox" class="cls-1" d="M4.92,453.81l10.23,9.31,6.34-5.22V440ZM22,458.73l-6.14,5.12L22,469.47l6.24-5.63Zm17.09-4.81L22.52,440v17.91L29,463.13ZM22.52,470.39V484l14.84-13.71,2-15.35Zm-1,0L4.61,454.84l2,15.45L21.49,484V470.39Z" transform="translate(0.01)"/><path id="Press" class="cls-1" d="M37.2,418.58c-3.8,1.3-7.5,2.7-11.3,4l-0.9-2.4c3.8-1.3,7.5-2.7,11.3-4Zm-1.3-3.7c-3.8,1.3-7.5,2.7-11.3,4l-0.9-2.4c3.8-1.3,7.5-2.7,11.3-4Zm-23.79,5.7c2.6-.9,5.3-1.9,7.9-2.8,0.7,2,1.5,4.1,2.2,6.1-2.6.9-5.3,1.9-7.9,2.8C13.5,424.68,12.8,422.68,12.1,420.58Zm-2.2-6.1c7.6-2.7,15.3-5.5,22.89-8.2,0.4,1.2.9,2.4,1.3,3.7-7.6,2.7-15.3,5.5-22.89,8.2C10.8,417,10.3,415.78,9.9,414.48Zm-6.8-3.4c0.7,1.9,1.4,3.9,2.1,5.8-1.7.6-3.5,1.2-5.2,1.8,1.9,5.3,3.8,10.7,5.7,16a4.36,4.36,0,0,0,6,1.9c10-3.6,19.9-7.1,29.89-10.7a4.36,4.36,0,0,0,1.9-6c-2.5-6.8-4.9-13.7-7.4-20.6C25.1,403.18,14.1,407.18,3.1,411.08Zm7.6,21.4c0.3,2-2.4,1.5-2.4-.1l-4.2-11.7c0.7-.3,1.4-0.5,2.1-0.8,1.5,4.2,3,8.4,4.5,12.5v0.1Zm30-10.7c0.3,1.4-1.4,1.4-2.2,1.8-8.2,2.9-16.3,5.9-24.49,8.7a9.61,9.61,0,0,0-.8-2.6c-2-5.5-3.9-11.1-5.9-16.7,8.9-3.2,17.9-6.4,26.89-9.6,2.2,6.1,4.4,12.2,6.5,18.3v0.1Z" transform="translate(0.01)"/><path id="Itch.io" class="cls-1" d="M5.49,356L0,362.86v2.41c0,5.5,8.94,5.5,8.94,0,0,5.5,8.59,5.5,8.59,0,0,5.5,8.94,5.5,8.94,0,0,5.5,8.59,5.5,8.59,0,0,5.5,8.94,5.5,8.94,0v-2.41L38.49,356h-33Zm8.36,15.81c-2.1,0-5.67,2.06-6.19,4.88L4.91,387.4c-0.52,2.75,1,4.78,3.78,4.78,1.93,0,4.37-1.24,6-4.78H29.39c1.65,3.54,4.09,4.78,6,4.78,2.78,0,4.3-2,3.78-4.78l-2.75-10.73c-0.52-2.82-4.09-4.84-6.19-4.88-2.78,0-3.71.58-4.12,2.75H18C16.88,372.38,15.95,371.76,13.85,371.8ZM22,375.58l6.53,6.88H25.78v3.44H18.21v-3.44H15.46Z" transform="translate(0.01)"/><path id="IndieGameStand" class="cls-1" d="M44,352V336.57A3.55,3.55,0,0,0,40.48,333H28.34a3.55,3.55,0,0,0-3.53,3.58v11.87A3.54,3.54,0,0,0,28.34,352H44Zm0-44H28.74a3.55,3.55,0,0,0-3.54,3.56v12.28a3.55,3.55,0,0,0,3.54,3.56H40.48A3.54,3.54,0,0,0,44,323.84V308ZM0.29,352H15.55a3.55,3.55,0,0,0,3.54-3.56V336.16a3.55,3.55,0,0,0-3.54-3.56H3.81a3.54,3.54,0,0,0-3.53,3.56V352ZM0,308.14v15.43a3.55,3.55,0,0,0,3.53,3.58H15.67a3.55,3.55,0,0,0,3.53-3.58V311.7a3.54,3.54,0,0,0-3.53-3.56H0Z" transform="translate(0.01)"/><path id="Humble" class="cls-1" d="M42.18,285.69c-0.55,3.11-3.12,13.94-9.31,13.94s3.34-34,3.34-34H29.78a100.92,100.92,0,0,0-4.45,16.18H19.84c0.14-1.89.21-3.79,0.18-5.69-0.25-15.1-9-12.25-13-8.78-3.76,3.29-6.74,9.16-7,13.77L3,281.81s2-9,8.16-9S7.78,307,7.78,307h6.43a103.73,103.73,0,0,0,4.9-19H24.4a65.08,65.08,0,0,0-.43,8.29c0.25,15.1,9,12.25,13,8.79S44,295.3,44,290.6C43.66,290.6,42.61,286.07,42.18,285.69Z" transform="translate(0.01)"/><path id="Gumroad" class="cls-1" d="M6.1,225.7H35.64a3.9,3.9,0,1,0-.15-3.26H6.1A5,5,0,0,0,1,227.37v31.45A5.21,5.21,0,0,0,6.1,264H37.55a5.11,5.11,0,0,0,5-5.18V240.16a5.06,5.06,0,0,0-5-5.09H18.89a5.25,5.25,0,0,0-5.26,5.09V246A5.11,5.11,0,0,0,18.89,251H25.4a3.91,3.91,0,1,0,.15-3.26H18.89a1.87,1.87,0,0,1-2-1.67v-5.86a2,2,0,0,1,2-1.83H37.55a1.78,1.78,0,0,1,1.76,1.83v18.66a1.87,1.87,0,0,1-1.76,1.92H6.1a1.93,1.93,0,0,1-1.83-1.92V227.37A1.72,1.72,0,0,1,6.1,225.7Zm33-3.66a1.87,1.87,0,1,1-1.87,1.87A1.87,1.87,0,0,1,39.11,222ZM29,247.63a1.87,1.87,0,1,1-1.87,1.87A1.87,1.87,0,0,1,29,247.63Z" transform="translate(0.01)"/><path id="Google_Play" data-name="Google Play" class="cls-1" d="M3.49,176a2.16,2.16,0,0,0-.44.05c-0.9.2-1.64,1-1.64,2.55v38.75c0,1.48.58,2.53,1.66,2.63a3,3,0,0,0,1.77-.45l26.94-14.74,9.55-5.23c1.08-.59,2.21-2.1,0-3.3l-9.55-5.22L4.84,176.35A2.75,2.75,0,0,0,3.49,176Z" transform="translate(0.01)"/><path id="Facebook" class="cls-1" d="M41.61,132H2.41A2.43,2.43,0,0,0,0,134.4v39.1a2.46,2.46,0,0,0,2.4,2.5h21.1V159h-5.7v-6.6h5.7v-4.9c0-5.7,3.5-8.8,8.5-8.8a39.45,39.45,0,0,1,5.1.3v5.9h-3.5c-2.8,0-3.3,1.3-3.3,3.2v4.2h6.6l-0.8,6.7h-5.7v17h11.2a2.43,2.43,0,0,0,2.4-2.4V134.4A2.43,2.43,0,0,0,41.61,132Z" transform="translate(0.01)"/><polygon id="Bandcamp" class="cls-1" points="14.25 98.25 44.01 98.25 29.77 122.91 0.01 122.91 14.25 98.25"/><path id="App_Store" data-name="App Store" class="cls-1" d="M35.34,65.9H44v4.62H38.13ZM16.65,66H27.31L30,70.75H13.85Zm18.3,10.72,3.9-2.25c2.91,2.13,2.8,6.16,2.25,9.35C40.93,86,39.77,82,38.62,81.54,37.08,80.2,35.37,78.85,34.94,76.73Zm-3.59-6.16,4.08-2.35S27.56,54.54,23.58,47.73c-1.47-1.49-4.83.43-4.11,2.49C23.4,57,31.35,70.58,31.35,70.58Zm0.57,1.25,4.3-2.48L38.31,73,34,75.43ZM15.17,56.67l4.25,2.45S20.09,58,20.73,57c1-2.27-2.9-4.27-4.39-2.24ZM3.54,76.45l4.34,2.64L1.7,84.75ZM14.6,57.81l4.18,2.41L8.39,78.2,4,75.65ZM0,65.9H8.9L6.17,70.63H0V65.9Z" transform="translate(0.01)"/><path id="Amazon" class="cls-1" d="M38.36,39C33.93,42.26,27.5,44,22,44a29.67,29.67,0,0,1-20-7.64c-0.41-.37,0-0.89.45-0.6a40.29,40.29,0,0,0,20,5.32A39.85,39.85,0,0,0,37.71,38C38.47,37.63,39.09,38.45,38.36,39Zm1.84-2.11c-0.57-.73-3.75-0.34-5.18-0.17-0.43.05-.5-0.33-0.11-0.6,2.54-1.78,6.7-1.27,7.18-.67S42,40.21,39.59,42.2c-0.37.31-.71,0.14-0.55-0.26C39.57,40.6,40.77,37.61,40.2,36.88Zm-4.93-8.17C34.16,27.17,33,25.91,33,23.05v-9.5c0-4,.25-7.74-2.72-10.51C27.95,0.79,24,0,21.08,0,15.27,0,8.78,2.17,7.42,9.35a1.07,1.07,0,0,0,.91,1.28l5.91,0.64a1.29,1.29,0,0,0,1.06-1.12,4.64,4.64,0,0,1,4.9-3.67,3.75,3.75,0,0,1,3.24,1.59c0.86,1.26.56,3,.56,4.43v0.79c-3,.4-8,0.66-11.29,2.12a10.29,10.29,0,0,0-6.42,10c0,6.34,4,9.51,9.18,9.51,4.34,0,6.74-1,10.08-4.44a15,15,0,0,0,3.51,4.07,1.27,1.27,0,0,0,1.45-.14h0c1.22-1.08,3.45-3,4.7-4.05A1.15,1.15,0,0,0,35.27,28.71ZM14.8,24.19C14.8,19,19,18,24,18v1.32c0,2.38-.07,4.36-1.27,6.47a5.15,5.15,0,0,1-4.35,2.77C16,28.61,14.8,26.83,14.8,24.19Z" transform="translate(0.01)"/></svg>