<?xml version="1.0"?>
<!--Icons from directory ""-->
<svg xmlns="http://www.w3.org/2000/svg" width="44" height="584" viewBox="0 0 44 584"><svg xmlns:rdf="http://www.w3.org/1999/02/22-rdf-syntax-ns#" xmlns:cc="http://creativecommons.org/ns#" xmlns:dc="http://purl.org/dc/elements/1.1/" id="ico_amazon" enable-background="new 0 0 100 94.076" xml:space="preserve" height="44" viewBox="0 0 44 44.000002" width="44" version="1.1" y="0" x="0px"><g id="ico_amazon-g3806" fill-rule="evenodd" transform="matrix(.46826 0 0 .46826 -1.2918 -.033247)" clip-rule="evenodd" fill="#fff">	<path id="ico_amazon-path3808" d="m84.666 83.334c-9.469 6.984-23.192 10.701-35.01 10.701-16.566 0-31.48-6.123-42.769-16.316-0.886-0.799-0.095-1.893 0.97-1.275 12.177 7.09 27.236 11.357 42.792 11.357 10.494 0 22.029-2.178 32.638-6.68 1.605-0.68 2.945 1.057 1.379 2.213z"/>	<path id="ico_amazon-path3810" d="m88.604 78.836c-1.21-1.553-8.003-0.736-11.055-0.371-0.924 0.111-1.065-0.695-0.231-1.279 5.417-3.809 14.298-2.711 15.328-1.436 1.04 1.289-0.271 10.188-5.351 14.438-0.781 0.654-1.522 0.305-1.179-0.557 1.144-2.856 3.7-9.244 2.488-10.795z"/>	<path id="ico_amazon-path3812" d="m54.796 41.696c0 5.078 0.122 9.308-2.438 13.824-2.074 3.668-5.364 5.926-9.022 5.926-4.998 0-7.923-3.812-7.923-9.453 0-11.098 9.956-13.116 19.383-13.116v2.819zm13.14 31.773c-0.862 0.773-2.107 0.828-3.081 0.303-4.328-3.598-5.104-5.26-7.47-8.684-7.151 7.287-12.219 9.473-21.485 9.473-10.972 0-19.505-6.771-19.505-20.312 0-10.578 5.729-17.772 13.896-21.296 7.071-3.104 16.946-3.668 24.504-4.517v-1.691c0-3.104 0.243-6.772-1.583-9.459-1.587-2.403-4.635-3.391-7.316-3.391-4.97 0-9.39 2.545-10.474 7.838-0.227 1.176-1.083 2.336-2.264 2.397l-12.63-1.367c-1.067-0.24-2.254-1.098-1.946-2.728 2.903-15.337 16.74-19.964 29.142-19.964 6.343 0 14.629 1.691 19.626 6.486 6.341 5.927 5.733 13.837 5.733 22.446v20.298c0 6.111 2.536 8.789 4.916 12.082 0.832 1.184 1.02 2.594-0.04 3.459-2.663 2.232-7.396 6.338-9.995 8.654l-0.028-0.027z"/></g></svg><svg xmlns:rdf="http://www.w3.org/1999/02/22-rdf-syntax-ns#" xmlns:cc="http://creativecommons.org/ns#" xmlns:dc="http://purl.org/dc/elements/1.1/" id="ico_appstore" height="44" width="44" version="1.1" y="44"><path id="ico_appstore-path3581" fill="#fff" d="m35.337 21.927h8.6632v4.6166h-5.8705l-2.7927-4.6166zm-18.694 0.11399h10.658c0.91112 1.5781 1.8222 3.1562 2.7334 4.7343h-16.184c0.93092-1.5781 1.8618-3.1562 2.7928-4.7343zm18.295 10.715c1.3002-0.75066 2.6004-1.5013 3.9005-2.252 2.9091 2.1303 2.8034 6.1593 2.2526 9.3508-0.16345 2.1801-1.324-1.8774-2.4754-2.2915-1.5424-1.3347-3.2461-2.6833-3.6778-4.8074zm-3.5907-6.1554 4.0781-2.3545s-7.8705-13.682-11.854-20.493c-1.472-1.4881-4.8251 0.43172-4.1099 2.4862 3.929 6.8047 11.885 20.362 11.885 20.362zm0.56995 1.2539c1.4328-0.82724 2.8656-1.6545 4.2985-2.4817 0.69648 1.2063 1.393 2.4127 2.0894 3.619l-4.2668 2.4634c-0.70702-1.2002-1.414-2.4005-2.1211-3.6008zm-16.756-15.161 4.2491 2.4532s0.6771-1.0791 1.3135-2.1221c0.96387-2.2659-2.9013-4.2746-4.3883-2.2384-0.39145 0.63577-1.1744 1.9073-1.1744 1.9073zm-11.627 19.777c1.4456 0.87983 2.8911 1.7597 4.3366 2.6395l-6.1776 5.6646c0.61365-2.768 1.2273-5.5361 1.841-8.3041zm11.057-18.637c1.3923 0.80383 2.7846 1.6077 4.1768 2.4115-3.4606 5.9939-6.9212 11.988-10.382 17.982-1.4759-0.8521-2.9518-1.7042-4.4276-2.5563 3.5442-5.9456 7.0884-11.891 10.633-17.837zm-14.591 8.093h8.8912c-0.9095 1.5753-1.819 3.1506-2.7285 4.7259h-6.1627v-4.7259z"/></svg><svg xmlns:rdf="http://www.w3.org/1999/02/22-rdf-syntax-ns#" xmlns:cc="http://creativecommons.org/ns#" xmlns:dc="http://purl.org/dc/elements/1.1/" id="ico_bandcamp" height="44" width="44" version="1.1" y="88"><g id="ico_bandcamp-layer1" transform="translate(-172.95 -630.57)"><rect id="ico_bandcamp-rect6678" transform="matrix(1 0 -0.5 .86603 0 0)" height="28.472" width="29.764" y="739.28" x="556.83" fill="#fff"/></g></svg><svg xmlns:rdf="http://www.w3.org/1999/02/22-rdf-syntax-ns#" xmlns:cc="http://creativecommons.org/ns#" xmlns:dc="http://purl.org/dc/elements/1.1/" id="ico_desura" height="44" width="44" version="1.1" y="132"><path id="ico_desura-path5523" fill="#fff" d="m22 5.1562-7.562 6.1878-9.6255-1.032-4.8125 13.407l10.656 9.625 11.344 5.5 11.344-5.5 10.656-9.625-4.812-13.407-9.626 1.032-7.562-6.1878zm0 2.4062 6.875 5.8438 8.9375-1.0312 3.4375 10.656-7.9062 6.5312h-4.4688l8.9375-7.2188-2.406-7.218-7.562 1.031-5.844-5.156-5.844 5.156-7.5622-1.031-2.4063 7.219 8.9375 7.2188h-4.4688l-7.906-6.532 3.4375-10.656 8.9375 1.031 6.875-5.8435zm0 6.1875 4.125 3.7812c0 3.4375 0 8.25-4.125 13.062-4.125-4.8125-4.125-9.625-4.125-13.062l4.125-3.781zm-11.688 3.7812 4.8125 0.6875c0 3.4375 0.6875 7.2188 3.0938 11.344l-9.2812-7.9062 1.375-4.125zm23.375 0 1.375 4.125-9.2812 7.9062c2.407-4.124 3.094-7.906 3.094-11.343l4.8125-0.6875zm-21.312 14.094h19.25l-9.625 4.813-9.625-4.813z"/></svg><svg xmlns:rdf="http://www.w3.org/1999/02/22-rdf-syntax-ns#" xmlns:cc="http://creativecommons.org/ns#" xmlns:dc="http://purl.org/dc/elements/1.1/" id="ico_external" enable-background="new 0 0 100 100" xml:space="preserve" height="12" width="12" version="1.1" y="176" x="0px" viewBox="0 0 12 12"><path id="ico_external-polygon4" fill="#fff" d="m0 0v12h12v-4.56h-1.8v2.76h-8.4v-8.4h2.76v-1.8zm6.48 0 2.1338 2.2162-2.2913 2.3438h-1.7625v2.88h2.88v-1.4625l2.4938-2.4413 1.9912 1.9838 0.075-5.52z"/></svg><svg xmlns:rdf="http://www.w3.org/1999/02/22-rdf-syntax-ns#" xmlns:cc="http://creativecommons.org/ns#" xmlns:dc="http://purl.org/dc/elements/1.1/" id="ico_greenlight" enable-background="new 0 0 100 100" xml:space="preserve" height="44" width="44" version="1.1" y="188" x="0px" viewBox="0 0 43.999999 44"><g id="ico_greenlight-Layer_1" transform="translate(-9.431 -50.979)" display="none">	<g id="ico_greenlight-Your_Icon" display="inline">		<path id="ico_greenlight-path7" d="m81.775 48.962c-0.144-0.082-0.293-0.152-0.448-0.209-0.069-0.026-6.984-2.635-11.027-8.182-2.362-3.241-5.873-6.074-9.591-9.073-4.118-3.323-8.377-6.759-11.229-10.891-1.768-2.558-3.026-5-4.138-7.156-2.06-3.998-3.839-7.451-7.61-7.451-1.161 0-2.308 0.361-3.507 1.105-2.508 1.555-4.133 4.244-4.575 7.571-0.696 5.228 1.6 11.255 6.144 16.123 2.959 3.17 3.438 5.646 2.948 6.802-0.51 1.207-2.345 1.957-4.907 2.007-0.894 0.018-1.799 0.024-2.7 0.031-6.439 0.049-12.521 0.094-15.917 3.63-1.551 1.616-2.295 3.715-2.211 6.238 0.109 3.292 1.131 5.511 2.56 6.896-0.546 0.865-0.98 1.873-1.193 3.037-0.516 2.828 0.424 5.742 2.795 8.688-0.722 1.229-1.319 2.854-1.18 4.774 0.188 2.574 1.619 4.892 4.262 6.9 0.042 1.883 0.476 4.744 2.369 7.316 1.969 2.676 4.956 4.322 8.878 4.895 1.739 0.256 3.571 0.381 5.603 0.381 4.923 0 10.096-0.762 14.659-1.434 3.879-0.57 7.54-1.109 10.442-1.109h0.679c7.508 0 12.04 0 14.189-6.324 0.221-0.645 0.832-2.024 1.539-3.62 4.338-9.786 11.599-26.165 3.166-30.945zm-3.151 13.702c-1.365 5.107-3.938 10.91-5.64 14.748-0.832 1.875-1.432 3.23-1.739 4.135-0.647 1.91-0.731 2.152-8.365 2.152h-0.679c-3.354 0-7.23 0.572-11.338 1.178-4.567 0.67-9.29 1.365-13.764 1.365-1.729 0-3.271-0.102-4.711-0.314-4.005-0.584-5.399-2.744-5.835-4.615h3.389c1.698 0 3.076-1.377 3.076-3.078 0-1.696-1.378-3.075-3.076-3.075h-5.616c-1.339-0.941-2.133-1.9-2.199-2.685-0.043-0.492 0.194-1.004 0.462-1.41h12.671c1.699 0 3.077-1.377 3.077-3.075 0-1.699-1.378-3.078-3.077-3.078h-12.747c-1.542-1.705-2.283-3.226-2.089-4.347 0.188-1.094 1.309-1.985 2.038-2.434h15.728c1.699 0 3.077-1.377 3.077-3.076s-1.378-3.076-3.077-3.076h-15.748c-0.188-0.039-0.38-0.065-0.575-0.065-0.343 0-0.693 0.063-1.039 0.19-0.002 0-0.182 0.045-0.419 0.045-0.287 0-1.158 0-1.253-2.843-0.035-1.072 0.249-1.511 0.5-1.772 1.598-1.664 7.102-1.705 11.524-1.738 0.927-0.007 1.856-0.014 2.774-0.031 5.138-0.102 8.948-2.202 10.455-5.763 1.662-3.93 0.161-8.813-4.118-13.398-3.886-4.164-4.895-8.47-4.543-11.112 0.113-0.85 0.488-2.39 1.72-3.154 0.035-0.022 0.068-0.042 0.099-0.059 0.603 0.69 1.537 2.502 2.306 3.995 1.137 2.205 2.552 4.951 4.543 7.834 3.36 4.864 8.18 8.752 12.43 12.182 3.393 2.738 6.598 5.323 8.481 7.909 4.604 6.319 11.844 9.516 13.521 10.192 0.646 0.547 1.238 2.802-0.224 8.273z"/>	</g></g><g id="ico_greenlight-Layer_4" transform="translate(-9.431 -50.979)" display="none">	<g id="ico_greenlight-g10" display="inline">		<path id="ico_greenlight-path12" d="m15.573 68.955c-0.333 1.031-0.504 2.113-0.504 3.232 0 3.787 1.936 7.028 4.753 8.226-0.34 1.031-0.511 2.121-0.511 3.247 0 4.906 3.145 8.751 7.161 8.751h9.244c0.413 0 0.84-0.049 1.266-0.14 0.218 0.055 0.44 0.077 0.656 0.077h11.521c7.203 0 14.521-4.506 19.677-12.08h11.817c1.671 0 3.031-1.358 3.033-3.029l0.064-30.552c0.003-0.812-0.313-1.577-0.889-2.151-0.569-0.573-1.333-0.89-2.146-0.89h-13.315c-2.918-2.17-9.451-7.135-13.622-11.077-3.505-3.309-6.245-4.995-8.249-6.225-1.3-0.801-2.237-1.377-2.881-2.071-4.288-4.616-3.807-8.956-3.783-9.139 0.123-0.875-0.145-1.769-0.746-2.438-0.564-0.632-1.407-1.001-2.307-1.009-3.55 0.105-10.437 2.63-11.418 11.431-0.51 4.608 2.004 10.4 7.484 17.241h-9.653c-4.016 0-7.162 3.843-7.162 8.749 0 1.193 0.196 2.365 0.571 3.452-2.786 1.217-4.695 4.445-4.695 8.204 0.002 3.78 1.85 6.957 4.634 8.191zm6.616-0.568h16.25c1.038 0.038 2.18 1.646 2.18 3.799 0 2.178-1.17 3.802-2.216 3.802h-16.176c-1.045 0-2.216-1.624-2.216-3.802 0-2.154 1.142-3.761 2.178-3.799zm2.065 15.273c0-2.174 1.171-3.799 2.216-3.799h9.244c0.075 0 0.154 0.025 0.23 0.043 0.108 0.17 0.246 0.329 0.419 0.457 0.606 0.451 1.063 1.081 1.369 1.802 0.125 0.452 0.198 0.957 0.198 1.497 0 2.177-1.169 3.805-2.216 3.805h-9.244c-1.045 0-2.216-1.628-2.216-3.805zm-6.152-19.094c-1.049 0-2.219-1.629-2.219-3.802 0-2.178 1.17-3.805 2.219-3.805h22.115c1.046 0 2.218 1.627 2.218 3.805 0 2.173-1.171 3.802-2.218 3.802h-1.704c-0.038 0-0.074-0.008-0.11-0.008h-16.176c-0.038 0-0.075 0.008-0.11 0.008h-4.015zm1.909-15.457c0-2.176 1.168-3.803 2.216-3.803h16.176c1.046 0 2.216 1.627 2.216 3.803 0 2.174-1.17 3.802-2.216 3.802h-16.176c-1.045 0-2.216-1.628-2.216-3.802zm9.301-25.445c0.477-4.287 2.896-5.961 4.673-6.617 0.26 2.536 1.321 6.585 5.04 10.592 1.105 1.19 2.407 1.99 3.917 2.918 1.921 1.182 4.313 2.653 7.439 5.606 4.829 4.56 12.614 10.378 14.883 12.053 0.33 0.242 0.726 0.375 1.135 0.375h12.406l-0.057 26.732h-11.626c-0.85 0-1.568 0.552-1.817 1.316-3.351 5.264-9.284 10.764-16.145 10.764h-7.822c0.412-1.023 0.632-2.137 0.632-3.276 0-1.146-0.221-2.259-0.629-3.282-0.104-0.336-0.224-0.658-0.361-0.967 2.575-1.355 4.309-4.169 4.309-7.423 0-1.762-0.513-3.434-1.433-4.814 1.299-0.954 2.3-2.332 2.859-3.929 2.178 1.99 5.112 3.484 9.032 4.045 0.09 0.015 0.182 0.021 0.271 0.021 0.937 0 1.755-0.687 1.888-1.64 0.149-1.048-0.578-2.014-1.62-2.163-8.705-1.243-10.85-8.071-11.289-12.664 0.176-0.704 0.289-1.434 0.289-2.188 0-0.729-0.115-1.427-0.281-2.103 0.052-0.565-0.146-1.097-0.511-1.484-1.056-2.351-3.095-4.104-5.572-4.554-6.451-7.061-10.034-13.505-9.61-17.318z"/>	</g></g><g id="ico_greenlight-Layer_2" transform="translate(-9.431 -50.979)" display="none">	<g id="ico_greenlight-g15" display="inline">		<path id="ico_greenlight-path17" d="m33.985 17.047c0.057 2.453 1.132 5.487 2.307 7.37 1.13 1.811 4.206 4.94 7.594 6.725s7.607 6.256 11.857 9.687c3.393 2.738 7.523 6.243 10.132 7.422s11.927 0.229 12.846 1.025c1.654 1.433 1.365 7.918-0.097 13.389-1.365 5.107-5.183 9.229-5.64 14.748-0.352 4.238-2.375 4.287-9.589 4.287h-0.516-0.679c-3.354 0-7.23 2.572-11.338 3.178-2.392 0.351-5.087 0.435-8.538 0.435-3.14 0-6.904-0.069-11.638-0.069-3.125 0-4.134-1.604-4.134-3.93h7.389c1.698 0 3.076-1.377 3.076-3.078 0-1.696-1.378-3.075-3.076-3.075h-9.275c-1.472 0-2.531-1.22-2.531-2.533 0-1.004 0.313-1.198 0.677-1.562h14.448c1.699 0 3.077-1.377 3.077-3.075 0-1.699-1.378-3.078-3.077-3.078h-12.588c-2.812 0-4.248-1.608-4.248-3.548s1.031-3.232 1.031-3.232h16.735c1.699 0 3.077-1.377 3.077-3.076s-1.378-3.076-3.077-3.076h-15.748c-1.833 0-3.286-1.213-3.286-3.088s1.344-3.096 3.286-3.096h11.512c4.921 0 6.775-2.565 4.968-4.812-3.886-4.164-9.519-11.078-9.638-16.421-0.128-5.72 2.278-6.876 4.701-7.517m-0.001-6c-0.512 0-1.027 0.065-1.534 0.199-6.244 1.651-9.328 6.176-9.165 13.449 0.098 4.354 2.359 9.416 6.738 15.1h-7.582c-5.294 0-9.286 3.91-9.286 9.096 0 2.631 1.087 4.967 2.854 6.611-0.714 1.22-1.586 3.246-1.586 5.861 0 2.736 1.114 5.135 2.964 6.844-0.682 1.016-1.252 2.424-1.252 4.419 0 3.259 1.836 6.098 4.528 7.534-0.072 0.373-0.11 0.758-0.11 1.152 0 5.939 4.073 9.93 10.134 9.93 2.589 0 4.886 0.021 6.947 0.04 1.712 0.015 3.265 0.029 4.691 0.029 3.61 0 6.591-0.085 9.409-0.498 2.554-0.377 4.808-1.231 6.796-1.986 1.325-0.503 2.974-1.128 3.671-1.128h1.195c4.045 0 6.967 0 9.466-0.933 3.676-1.373 5.729-4.354 6.103-8.859 0.167-2.02 1.208-4.058 2.413-6.418 1.081-2.116 2.306-4.515 3.044-7.275 0.856-3.207 1.36-6.631 1.419-9.642 0.092-4.743-0.922-7.867-3.19-9.833-2.102-1.82-4.519-1.824-8.905-1.832-1.604-0.003-4.529-0.008-5.591-0.219-1.637-0.835-4.989-3.562-7.238-5.392-0.478-0.389-0.947-0.771-1.404-1.139-1.388-1.12-2.839-2.421-4.242-3.679-2.954-2.648-5.745-5.15-8.586-6.646-2.414-1.272-4.7-3.631-5.301-4.594-0.73-1.171-1.371-3.155-1.398-4.333-0.043-1.837-0.925-3.553-2.394-4.657-1.053-0.787-2.321-1.201-3.608-1.201z"/>	</g></g><g id="ico_greenlight-Final" fill="#fff" transform="matrix(.49017 0 0 .49017 -2.5073 -2.5557)">	<path id="ico_greenlight-path20" fill="#fff" d="m32.325 11.214c0.065 2.794 1.29 6.251 2.628 8.395 1.288 2.063 4.791 5.628 8.651 7.661 3.859 2.034 8.666 7.127 13.507 11.035 3.864 3.119 8.57 7.111 11.541 8.455 2.972 1.343 13.587 0.261 14.634 1.167 1.884 1.632 1.556 9.019-0.11 15.251-1.555 5.818-5.903 10.513-6.425 16.802-0.399 4.828-2.705 4.883-10.926 4.883h-0.585-0.772c-3.82 0-8.236 2.931-12.916 3.62-2.725 0.399-5.796 0.495-9.728 0.495-3.576 0-7.863-0.079-13.255-0.079-3.56 0-4.71-1.827-4.71-4.477h8.417c1.935 0 3.504-1.568 3.504-3.506 0-1.933-1.569-3.503-3.504-3.503h-10.567c-1.677 0-2.882-1.391-2.882-2.887 0-1.144 0.357-1.364 0.771-1.779h16.458c1.936 0 3.505-1.567 3.505-3.502 0-1.937-1.57-3.507-3.505-3.507h-14.34c-3.204 0-4.84-1.833-4.84-4.041 0-2.21 1.175-3.683 1.175-3.683h19.064c1.935 0 3.505-1.569 3.505-3.505s-1.57-3.504-3.505-3.504h-17.939c-2.088 0-3.744-1.381-3.744-3.518s1.531-3.526 3.744-3.526h13.114c5.606 0 7.718-2.923 5.66-5.483-4.427-4.743-10.843-12.619-10.979-18.706-0.147-6.511 2.594-7.829 5.354-8.558m-0.001-6c-0.512 0-1.027 0.065-1.533 0.199-6.691 1.769-9.995 6.646-9.82 14.495 0.115 5.121 2.992 11.179 8.564 18.055h-10.36c-5.555 0-9.744 4.095-9.744 9.526 0 3 1.353 5.636 3.508 7.367-0.743 1.118-2.064 3.565-2.064 6.842 0 3.192 1.373 5.905 3.649 7.702-0.867 1.075-1.699 2.67-1.699 5.127 0 3.624 2.179 6.749 5.296 8.13-0.172 0.559-0.264 1.151-0.264 1.766 0 6.364 4.204 10.477 10.71 10.477 2.944 0 5.587 0.024 7.92 0.045 1.947 0.018 3.713 0.034 5.335 0.034 4.077 0 7.439-0.096 10.598-0.559 2.82-0.415 5.344-1.373 7.569-2.218 1.654-0.627 3.529-1.339 4.477-1.339h1.357c4.689 0 7.788 0 10.493-1.01 3.858-1.44 6.016-4.595 6.412-9.378 0.204-2.465 1.425-4.855 2.838-7.623 1.212-2.374 2.586-5.064 3.404-8.125 0.945-3.536 1.524-7.467 1.588-10.783 0.1-5.135-0.964-8.488-3.346-10.552-2.159-1.87-4.646-1.875-9.601-1.883-1.926-0.003-5.465-0.01-6.642-0.288-1.92-0.939-5.715-4.027-8.506-6.297-0.54-0.439-1.07-0.871-1.587-1.288-1.6-1.291-3.262-2.781-4.87-4.222-3.324-2.98-6.465-5.795-9.608-7.452-2.884-1.519-5.631-4.364-6.359-5.53-0.914-1.463-1.685-3.866-1.719-5.357-0.043-1.836-0.925-3.553-2.394-4.657-1.047-0.79-2.315-1.204-3.602-1.204z"/></g><g id="ico_greenlight-Layer_3" transform="translate(-9.431 -50.979)" display="none">	<path id="ico_greenlight-path23" d="m21.271 13.189c0.592-5.311 3.588-7.386 5.789-8.198 0.322 3.142 1.637 8.158 6.245 13.121 1.369 1.474 2.982 2.466 4.852 3.615 2.381 1.465 5.344 3.287 9.217 6.945 5.982 5.649 15.625 12.856 18.438 14.932 0.408 0.3 0.898 0.463 1.404 0.463h15.367l-0.068 33.117h-14.404c-1.051 0-1.943 0.684-2.252 1.631-4.15 6.52-11.5 13.334-20 13.334h-9.689c0.51-1.268 0.783-2.647 0.783-4.059 0-1.421-0.273-2.799-0.779-4.066-0.129-0.416-0.277-0.815-0.447-1.198 3.189-1.679 5.338-5.164 5.338-9.193 0-2.183-0.635-4.254-1.775-5.966 1.609-1.182 2.85-2.889 3.541-4.867 2.699 2.467 6.334 4.317 11.189 5.012 0.111 0.017 0.225 0.025 0.338 0.025 1.16 0 2.172-0.85 2.338-2.031 0.186-1.296-0.717-2.494-2.008-2.679-10.781-1.54-13.439-9.999-13.984-15.688 0.219-0.873 0.357-1.777 0.357-2.711 0-0.903-0.143-1.768-0.348-2.605 0.064-0.7-0.182-1.358-0.633-1.838-1.309-2.912-3.834-5.085-6.902-5.641-7.993-8.748-12.432-16.733-11.907-21.455z" display="inline" stroke="#000" stroke-miterlimit="10" fill="none"/></g></svg><svg xmlns:rdf="http://www.w3.org/1999/02/22-rdf-syntax-ns#" xmlns:cc="http://creativecommons.org/ns#" xmlns:dc="http://purl.org/dc/elements/1.1/" id="ico_gumroad" enable-background="new 0 0 317.605 49.283" xml:space="preserve" height="44" viewBox="0 0 43.999998 43.999999" width="44" version="1.1" y="232" x="0px"><path id="ico_gumroad-path6572" d="m39.025 0.00001015c-1.6904 0-3.1364 1.0273-3.7346 2.48h-29.955c-1.2252-0.003-4.2733 1.6116-4.2818 3.904l-0.11403 33.445c-0.007 1.5882 2.2118 4.1697 4.0373 4.052l33.089 0.11859c1.4672-0.00094 4.2774-1.7473 4.2745-3.2145l0.11977-22.175c-0.005-1.6995-2.1006-3.3176-3.6815-3.3184l-20.99-0.35576c-1.5858-0.003-4.0438 2.3329-4.0446 3.9187l-0.11858 8.5367c-0.11789 1.3413 2.6813 3.673 4.2598 3.5629l7.5678 0.22864c0.60949 1.4283 2.0401 2.436 3.7126 2.436 2.2268 0 4.0355-1.7754 4.0355-3.9694s-1.8087-3.9694-4.0355-3.9694c-1.569 0-2.9226 0.88359-3.5879 2.1718l-8.6139-0.0954v-9.2522h22.166l0.10272 22.283h-35.064l0.33018-34.969h30.963c0.67423 1.2612 2.0171 2.1204 3.5659 2.1204 2.2268 0 4.0355-1.7754 4.0355-3.9694s-1.8087-3.9694-4.0355-3.9694zm0 2.1938c0.99463 0 1.805 0.79561 1.805 1.7756s-0.81033 1.7756-1.805 1.7756c-0.99462 0-1.7976-0.79561-1.7976-1.7756 0-0.98 0.80299-1.7756 1.7976-1.7756zm-9.8612 25.68c0.99462 0 1.805 0.7956 1.805 1.7756s-0.81033 1.7756-1.805 1.7756c-0.99463 0-1.7976-0.7956-1.7976-1.7756s0.80299-1.7756 1.7976-1.7756z" fill="#fff"/></svg><svg xmlns:rdf="http://www.w3.org/1999/02/22-rdf-syntax-ns#" xmlns:cc="http://creativecommons.org/ns#" xmlns:dc="http://purl.org/dc/elements/1.1/" id="ico_humble" enable-background="new 0 0 317.605 49.283" xml:space="preserve" height="44" viewBox="0 0 43.999998 43.999999" width="44" version="1.1" y="276" x="0px"><path id="ico_humble-path21" d="m42.176 21.481c-0.55482 3.1077-3.1226 13.944-9.3072 13.944s3.3394-33.999 3.3394-33.999h-6.4322s-2.7267 7.0098-4.4482 16.18h-5.4937c0.14397-1.8857 0.21245-3.7942 0.18172-5.6913-0.247-15.096-9.029-12.251-12.988-8.7852-3.7632 3.2938-6.7436 9.1602-7.028 13.771 0.32657 0.081 2.9461 0.706 2.9461 0.706s1.9787-9.0325 8.1642-9.0325c6.1846 0-3.3403 34.191-3.3403 34.191h6.4322s3.2622-8.4882 4.9021-18.971h5.2874c-0.3055 2.7126-0.47493 5.5095-0.43016 8.2907 0.24756 15.097 9.0298 12.251 12.988 8.7858 3.9583-3.465 7.0502-9.7751 7.0502-14.478-0.34237-0.000878-1.3949-4.5307-1.8242-4.9117z" fill-rule="evenodd" clip-rule="evenodd" fill="#fff"/></svg><svg xmlns:rdf="http://www.w3.org/1999/02/22-rdf-syntax-ns#" xmlns:cc="http://creativecommons.org/ns#" xmlns:dc="http://purl.org/dc/elements/1.1/" id="ico_indiedb" height="44" width="44" version="1.1" y="320"><path id="ico_indiedb-path7212" fill="#fff" d="m23.467 33.478c-1.2584-0.5104-2.295-2.2418-2.7485-4.5917-0.0528-0.2728-0.10193-0.52653-0.10963-0.56393-0.0077-0.03703-0.03483-0.06783-0.0605-0.06783s-0.40773-0.04033-0.84883-0.08947c-1.4439-0.16097-1.8315-0.18627-3.1221-0.20277-1.2965-0.0165-1.8084 0.0044-2.7804 0.1133-4.3563 0.48766-8.5437 2.3437-11.587 5.1355-0.16536 0.1518-0.3157 0.27243-0.33403 0.26803-0.0504-0.012-1.876-1.921-1.876-1.961 9.2079e-7 -0.069 0.946-0.866 1.6075-1.354 1.9991-1.4755 4.6409-2.7558 7.2174-3.498 1.5847-0.4565 2.9685-0.7128 4.7655-0.88293 0.54266-0.05133 3.0745-0.0517 3.6681-0.000366 0.9647 0.08323 1.9734 0.2024 3.0492 0.3597l0.1177 0.01723-0.02053-0.44806c-0.04547-0.97716-0.44256-3.0792-0.70803-3.748-0.42423-1.0681-1.1231-1.9254-1.9433-2.3841-1.9774-1.0545-6.5882 1.9199-8.2423 1.1543-0.4191-0.1463-0.5918-0.25886-0.81253-0.3894-0.16573-0.0979-0.55036-0.4532-0.55036-0.5082 0-0.01467-0.0341-0.077-0.0759-0.1386-0.1958-0.2882-0.26657-0.88-0.15547-1.298 0.1639-0.61673 0.4752-1.0967 1.1462-1.7659 0.704-0.70216 1.6097-1.4234 2.7834-2.2165 2.9333-1.9822 6.0045-3.3106 8.8245-3.817 1.6786-0.28783 3.5031-0.19323 5.1172 0.05317 1.1213 0.18407 2.1578 0.52726 2.8563 0.94563 0.14593 0.08727 0.4631 0.30543 0.70473 0.48473l0.43963 0.32596 0.31203-0.14666c0.52983-0.24933 0.93243-0.352 1.0762-0.275 0.02933 0.01577 0.077 0.0902 0.1056 0.16537s0.06013 0.13677 0.06967 0.13677c0.0095 0 0.1936-0.07553 0.40883-0.16757 2.2946-0.98266 4.6735-1.1627 6.9014-0.52176 1.1851 0.341 2.1655 0.8888 2.9164 1.6295 1.0853 1.0703 1.8249 2.4864 2.2187 4.2467 0.2255 1.2148 0.28783 1.7431 0.05573 3.1108-0.28233 1.6709-1.0685 3.2343-2.2051 4.3853-1.2393 1.2547-2.7969 2.1267-4.8664 2.724-1.5657 0.4521-4.2837 0.91703-6.2487 1.0692-0.23136 0.01797-0.4917 0.03997-0.57786 0.04913l-0.15693 0.0165-0.3806 0.57676c-1.3053 1.9778-2.7434 3.4459-3.8771 3.9585-0.4367 0.19726-0.517 0.21156-1.1986 0.21083l-0.63433-0.0015zm7.9434-6.5013c1.7208-0.1386 3.6556-0.42936 4.8994-0.73626 1.7538-0.43303 2.868-0.9658 4.0553-1.94 1.2184-0.99953 2.0247-2.4079 2.3496-4.1033 0.10487-0.54743 0.13273-1.5921 0.05757-2.1648-0.3201-2.4394-1.5748-4.3662-3.4598-5.3141-0.60426-0.30396-1.7941-0.62076-2.6866-0.71536-1.4806-0.1573-3.1372 0.08213-4.6343 0.66916-0.1903 0.07443-0.34796 0.1375-0.3509 0.1397-0.0026 0.0026 0.01503 0.07847 0.0396 0.1694 0.08507 0.31423 0.01943 0.6534-0.18993 0.98523-0.055 0.08727-0.1001 0.16537-0.1001 0.1738 0 0.0084 0.07297 0.1199 0.16207 0.2475 0.8844 1.2668 1.4524 2.6979 1.584 3.9904 0.18517 1.8205-0.68566 5.1707-2.1318 8.2008-0.11623 0.24383-0.2002 0.44366-0.1859 0.44366s0.2805-0.02053 0.5918-0.04547z"/></svg><svg xmlns:rdf="http://www.w3.org/1999/02/22-rdf-syntax-ns#" xmlns:cc="http://creativecommons.org/ns#" xmlns:dc="http://purl.org/dc/elements/1.1/" id="ico_indiegs" enable-background="new 0 0 317.605 49.283" xml:space="preserve" height="44" viewBox="0 0 43.999998 43.999999" width="44" version="1.1" y="364" x="0px"><path id="ico_indiegs-rect4861-4" fill="#fff" d="m44 43.761v-3.5251-4.3084-7.4296c0-1.9536-1.5719-3.5373-3.5251-3.5373h-12.142c-1.9532 0-3.5251 1.5837-3.5251 3.5373v11.738c0 1.9536 1.5719 3.5251 3.5251 3.5251h7.8335 4.3084 3.5251zm0-43.522h-3.5251-4.3084-7.4296c-1.9536 0-3.5373 1.5719-3.5373 3.5251v12.142c0 1.9532 1.5837 3.5251 3.5373 3.5251h11.738c1.9536 0 3.5251-1.5719 3.5251-3.5251v-7.8335-4.3084-3.5251zm-43.72 43.522h3.5251 4.3084 7.4296c1.9536 0 3.5374-1.5719 3.5374-3.5251v-12.142c0-1.9532-1.5838-3.5251-3.5374-3.5251h-11.738c-1.9536 0-3.5251 1.5719-3.5251 3.5251v7.8335 4.3084 3.5251zm-0.28-43.384v3.5251 4.3084 7.4296c0 1.9536 1.5719 3.5373 3.5251 3.5373h12.142c1.9532 0 3.525-1.5837 3.525-3.5373v-11.738c0-1.9536-1.5718-3.5251-3.525-3.5251h-7.8336-4.3084-3.5251z"/></svg><svg xmlns:rdf="http://www.w3.org/1999/02/22-rdf-syntax-ns#" xmlns:cc="http://creativecommons.org/ns#" xmlns:dc="http://purl.org/dc/elements/1.1/" id="ico_itchio" height="44" width="44" version="1.1" y="408"><path id="ico_itchio-path4969" fill="#fff" d="m5.5 3.8994-5.5 6.875v2.4062c0 5.5 8.9375 5.5 8.9375 0 0 5.5 8.5938 5.5 8.5938 0 0 5.5 8.9375 5.5 8.9375 0 0 5.5 8.5938 5.5 8.5938 0 0 5.5 8.9375 5.5 8.9375 0v-2.4062l-5.5-6.875h-33zm8.3574 15.812c-2.0969 0.03437-5.6719 2.0582-6.1875 4.877l-2.75 10.731c-0.51562 2.75 0.99688 4.7803 3.7812 4.7803 1.925 0 4.3656-1.2396 6.0156-4.7803h14.674c1.65 3.5406 4.0906 4.7803 6.0156 4.7803 2.7844 0 4.2969-2.0303 3.7812-4.7803l-2.75-10.731c-0.51562-2.8188-4.0906-4.8426-6.1875-4.877-2.7844-0.03437-3.7125 0.58438-4.125 2.75h-8.1426c-1.1-2.1656-2.0281-2.7844-4.125-2.75zm8.143 3.782l6.5312 6.875h-2.75v3.4375h-7.5625v-3.4375h-2.75l6.531-6.875z"/></svg><svg xmlns:rdf="http://www.w3.org/1999/02/22-rdf-syntax-ns#" xmlns:cc="http://creativecommons.org/ns#" xmlns:xlink="http://www.w3.org/1999/xlink" xmlns:dc="http://purl.org/dc/elements/1.1/" id="ico_play" enable-background="new 0 0 841.89 595.28" xml:space="preserve" height="44" viewBox="0 0 44.000002 44.000005" width="44" version="1.1" y="452" x="0px"><path id="ico_play-path16" fill="#fff" d="m3.4825 0.00026993c-0.1483 0.0022-0.2953 0.0218-0.4364 0.05322-0.9041 0.20166-1.6394 0.98211-1.6394 2.5548v38.748c0 1.4811 0.58283 2.5254 1.6606 2.6293 0.49393 0.0627 1.0837-0.0731 1.7671-0.44709 1.4147-0.77427 16.604-9.0846 26.942-14.743 5.2074-2.8501 9.1868-5.0284 9.5485-5.2267 1.0791-0.59067 2.2097-2.0951 0-3.2999-0.71023-0.38799-4.5766-2.5035-9.5485-5.216l-26.942-14.701c-0.43866-0.23938-0.90703-0.35802-1.3519-0.35128z"/></svg><svg xmlns:rdf="http://www.w3.org/1999/02/22-rdf-syntax-ns#" xmlns:cc="http://creativecommons.org/ns#" xmlns:dc="http://purl.org/dc/elements/1.1/" id="ico_press" enable-background="new 0 0 100 100" xml:space="preserve" height="44" width="44" version="1.1" y="496" x="0" viewBox="0 0 44 44.000001"><path id="ico_press-path6" fill="#fff" d="m37.195 22.395c-3.8 1.3-7.5 2.7-11.3 4-0.3-0.8-0.6-1.6-0.9-2.4 3.8-1.3 7.5-2.7 11.3-4 0.3 0.8 0.6 1.6 0.9 2.4zm-1.3-3.7c-3.8 1.3-7.5 2.7-11.3 4-0.3-0.8-0.6-1.6-0.9-2.4 3.8-1.3 7.5-2.7 11.3-4 0.3 0.8 0.6 1.6 0.9 2.4zm-23.8 5.7c2.6-0.9 5.3-1.9 7.9-2.8 0.7 2 1.5 4.1 2.2 6.1-2.6 0.9-5.3 1.9-7.9 2.8-0.8-2-1.5-4-2.2-6.1zm-2.2-6.1c7.6-2.7 15.3-5.5 22.9-8.2 0.4 1.2 0.9 2.4 1.3 3.7-7.6 2.7-15.3 5.5-22.9 8.2-0.4-1.2-0.9-2.4-1.3-3.7zm-6.8-3.4c0.7 1.9 1.4 3.9 2.1 5.8-1.7 0.6-3.5 1.2-5.2 1.8 1.9 5.3 3.8 10.7 5.7 16 1 2.3 3.9 3 6 1.9 10-3.6 19.9-7.1 29.9-10.7 2.3-1 3-3.9 1.9-6-2.5-6.8-4.9-13.7-7.4-20.6-11 3.9-22 7.9-33 11.8zm7.6 21.4c0.3 2-2.4 1.5-2.4-0.1l-4.2-11.7c0.7-0.3 1.4-0.5 2.1-0.8 1.5 4.2 3 8.4 4.5 12.5zm30-10.7c0.3 1.4-1.4 1.4-2.2 1.8-8.2 2.9-16.3 5.9-24.5 8.7-0.1-0.8-0.4-1.7-0.8-2.6-2-5.5-3.9-11.1-5.9-16.7 8.9-3.2 17.9-6.4 26.9-9.6 2.2 6.1 4.4 12.2 6.5 18.3z"/></svg><svg xmlns:rdf="http://www.w3.org/1999/02/22-rdf-syntax-ns#" xmlns:cc="http://creativecommons.org/ns#" xmlns:dc="http://purl.org/dc/elements/1.1/" id="ico_trailer" enable-background="new 0 0 100 100" xml:space="preserve" height="44" width="44" version="1.1" y="540" x="0" viewBox="0 0 44 44.000002"><path id="ico_trailer-path4" fill="#fff" d="m26.57 21.995c-0.31 1.03-1.56 1.31-2.35 1.96-1.9 1.18-3.76 2.44-5.69 3.57-1.41 0.19-1.05-1.45-1.09-2.32 0.02-2.72-0.04-5.44 0.03-8.15 0.51-1.26 1.74-0.2 2.45 0.25 2.08 1.32 4.17 2.65 6.25 3.97l0.29 0.31 0.11 0.41zm10.59 15.47h3.66c-0.5 0.23-1.42 0.03-2.08 0.1-0.48-0.07-1.28 0.14-1.58-0.1zm5.25-34.21c-2.38 0.02-4.77-0.04-7.15 0.03-1.56 0.33-1.24 2.09-1.27 3.28v3.17h-23.97c-0.02-1.74 0.04-3.48-0.03-5.21-0.33-1.57-2.09-1.24-3.29-1.27-1.81 0.02-3.62-0.04-5.42 0.03-1.57 0.33-1.24 2.09-1.27 3.29v32.57c-0.01 1.56 1.69 1.69 2.86 1.58 1.96-0.02 3.92 0.04 5.87-0.03 2.06-0.68 1.01-3.32 1.27-4.94 0-0.72-0.24-1.68 0.81-1.34h23.16c0.07 1.78-0.14 3.59 0.12 5.35 0.68 1.42 2.41 0.85 3.66 0.97 1.65-0.02 3.31 0.04 4.96-0.03 1.57-0.33 1.24-2.09 1.27-3.29v-32.57c0.02-0.85-0.74-1.6-1.58-1.58zm-35.55 34.3h-3.66v-3.61h3.66v3.61zm0-7.13h-3.66v-3.51h3.66v3.51zm0-7.03h-3.66v-3.51h3.66v3.51zm0-7.03h-3.66v-3.51h3.66v3.51zm0-7.03h-3.66v-2.92h3.66v2.92zm27.13 21.91h-23.97v-18.34h23.97v18.34zm6.83 6.32h-3.66v-3.61h3.66v3.61zm0-7.13h-3.66v-3.51h3.66v3.51zm0-7.03h-3.66v-3.51h3.66v3.51zm0-7.03h-3.66v-3.51h3.66v3.51zm0-7.03h-3.66v-2.92h3.66v2.92zm-37.63 28.11h3.66c-0.5 0.23-1.42 0.03-2.08 0.1-0.48-0.07-1.28 0.14-1.58-0.1z"/></svg></svg>
