<?xml version="1.0" encoding="UTF-8" standalone="no"?>
<!--Icons from directory ""-->

<svg
   xmlns:dc="http://purl.org/dc/elements/1.1/"
   xmlns:cc="http://creativecommons.org/ns#"
   xmlns:rdf="http://www.w3.org/1999/02/22-rdf-syntax-ns#"
   xmlns:svg="http://www.w3.org/2000/svg"
   xmlns="http://www.w3.org/2000/svg"
   xmlns:sodipodi="http://sodipodi.sourceforge.net/DTD/sodipodi-0.dtd"
   xmlns:inkscape="http://www.inkscape.org/namespaces/inkscape"
   width="44"
   height="584"
   viewBox="0 0 44 584"
   id="svg3899"
   version="1.1"
   inkscape:version="0.48.4 r9939"
   sodipodi:docname="icons.svg">
  <metadata
     id="metadata3949">
    <rdf:RDF>
      <cc:Work
         rdf:about="">
        <dc:format>image/svg+xml</dc:format>
        <dc:type
           rdf:resource="http://purl.org/dc/dcmitype/StillImage" />
      </cc:Work>
    </rdf:RDF>
  </metadata>
  <defs
     id="defs3947" />
  <sodipodi:namedview
     pagecolor="#ffffff"
     bordercolor="#666666"
     borderopacity="1"
     objecttolerance="10"
     gridtolerance="10"
     guidetolerance="10"
     inkscape:pageopacity="0"
     inkscape:pageshadow="2"
     inkscape:window-width="1920"
     inkscape:window-height="1018"
     id="namedview3945"
     showgrid="false"
     inkscape:zoom="1.6164384"
     inkscape:cx="21.890638"
     inkscape:cy="185.24168"
     inkscape:window-x="-8"
     inkscape:window-y="-8"
     inkscape:window-maximized="1"
     inkscape:current-layer="svg3899" />
  <svg
     id="ico_appstore"
     height="44"
     width="44"
     version="1.1"
     y="44"
     style="fill:#ffffff" />
  <svg
     id="ico_bandcamp"
     height="44"
     width="44"
     version="1.1"
     y="88"
     style="fill:#ffffff">
    <g
       id="ico_bandcamp-layer1"
       transform="translate(-172.95 -630.57)"
       style="fill:#ffffff" />
  </svg>
  <svg
     id="ico_desura"
     height="44"
     width="44"
     version="1.1"
     y="132"
     style="fill:#ffffff" />
  <svg
     id="ico_external"
     enable-background="new 0 0 100 100"
     xml:space="preserve"
     height="12"
     width="12"
     version="1.1"
     y="176"
     x="0px"
     viewBox="0 0 12 12"
     style="fill:#ffffff" />  <svg
     id="ico_gumroad"
     enable-background="new 0 0 317.605 49.283"
     xml:space="preserve"
     height="44"
     viewBox="0 0 43.999998 43.999999"
     width="44"
     version="1.1"
     y="232"
     x="0px"
     style="fill:#ffffff" />  <svg
     id="ico_humble"
     enable-background="new 0 0 317.605 49.283"
     xml:space="preserve"
     height="44"
     viewBox="0 0 43.999998 43.999999"
     width="44"
     version="1.1"
     y="276"
     x="0px"
     style="fill:#ffffff" />  <svg
     id="ico_indiedb"
     height="44"
     width="44"
     version="1.1"
     y="320"
     style="fill:#ffffff" />
  <svg
     id="ico_indiegs"
     enable-background="new 0 0 317.605 49.283"
     xml:space="preserve"
     height="44"
     viewBox="0 0 43.999998 43.999999"
     width="44"
     version="1.1"
     y="364"
     x="0px"
     style="fill:#ffffff" />  <svg
     id="ico_itchio"
     height="44"
     width="44"
     version="1.1"
     y="408"
     style="fill:#ffffff" />
  <svg
     id="ico_play"
     enable-background="new 0 0 841.89 595.28"
     xml:space="preserve"
     height="44"
     viewBox="0 0 44.000002 44.000005"
     width="44"
     version="1.1"
     y="452"
     x="0px"
     style="fill:#ffffff" />  <svg
     id="ico_press"
     enable-background="new 0 0 100 100"
     xml:space="preserve"
     height="44"
     width="44"
     version="1.1"
     y="496"
     x="0"
     viewBox="0 0 44 44.000001"
     style="fill:#ffffff" />  <svg
     id="ico_trailer"
     enable-background="new 0 0 100 100"
     xml:space="preserve"
     height="44"
     width="44"
     version="1.1"
     y="540"
     x="0"
     viewBox="0 0 44 44.000002"
     style="fill:#ffffff" />  <path
     style="fill:#ffffff"
     d="m 13.281311,190.94139 c 0.09615,3.61114 2.825112,6.521 5.921735,8.07333 3.05283,2.07858 5.56184,4.83866 8.546772,7.01374 1.654808,1.28501 3.403579,2.83985 5.656245,2.66957 1.713662,0.40926 4.43018,-0.81017 5.405442,0.96218 0.54945,2.94891 -0.04373,6.08012 -1.246476,8.80593 -1.118354,2.20596 -2.383594,4.43218 -2.506687,6.96096 -0.676762,2.17679 -3.523796,1.43777 -5.264028,1.61103 -2.930556,-0.13708 -5.417596,1.95066 -8.352509,1.91715 -3.533778,0.18477 -7.081248,0.08 -10.615505,0.02 -1.6432557,0.0311 -2.4933919,-2.81314 -0.405955,-2.15325 1.265009,-0.0973 2.625427,0.24651 3.802468,-0.29324 1.757165,-1.17409 0.154916,-3.66821 -1.681367,-3.142 -1.684426,-0.0648 -3.4043254,0.13817 -5.0637385,-0.11798 -1.4789563,-0.63143 -0.8126668,-2.72689 0.7229965,-2.16891 2.422074,-0.0229 4.848794,0.0461 7.267938,-0.0349 2.293091,-0.41954 1.366012,-3.9553 -0.825367,-3.40038 -2.46434,-0.0514 -4.9447844,0.10816 -7.3980461,-0.09 -1.9101396,-0.0306 -2.2185476,-3.86093 -0.2842228,-3.69564 3.0092809,-0.0226 6.0231509,0.0456 9.0295039,-0.0349 2.292699,-0.42041 1.366777,-3.95545 -0.825227,-3.40034 -2.912996,-0.0204 -5.8294245,0.0411 -8.7402489,-0.0311 -2.4524311,-0.34182 -1.4586468,-4.08853 0.8519423,-3.42126 2.4512243,-0.063 4.9220716,0.14386 7.3576176,-0.14049 2.868276,-0.40285 1.452841,-3.19629 -0.110713,-4.26756 -2.11288,-2.61315 -4.6127779,-5.82565 -3.691216,-9.39884 0.247246,-1.20802 1.27353,-2.00999 2.448646,-2.24303 z m -4.92e-4,-2.94071 c -3.016422,0.17757 -5.4619424,2.85335 -5.5482347,5.82761 -0.4587293,3.86699 1.8682565,7.34094 4.1734657,10.22328 -2.1103389,0.0628 -4.2426887,-0.14361 -6.3356151,0.14184 -3.2753109,0.59488 -4.68568078,4.96107 -2.5632998,7.42241 1.4787582,1.24432 -1.1951327,3.35081 -0.1757966,5.19469 0.1093844,1.68945 2.4755089,2.42428 0.9902262,3.9764 -0.5966,2.02119 0.5017518,4.35397 2.4582335,5.17002 -0.6820858,2.63886 1.2231273,5.6154 4.0015048,5.9078 3.58401,0.18091 7.192354,0.15735 10.782991,0.0631 2.681488,0.0238 5.143287,-1.06837 7.632829,-1.8897 2.710396,-0.24979 5.929499,0.45162 8.052759,-1.70069 1.695734,-1.67327 1.061369,-4.28073 2.276995,-6.19994 1.625886,-2.85801 2.75538,-6.00727 2.914927,-9.31066 0.208343,-2.41383 -0.02535,-5.73134 -2.682564,-6.73384 -2.25689,-0.60711 -4.638402,-0.0783 -6.929317,-0.44466 -4.002372,-2.44655 -7.208624,-5.94083 -10.948483,-8.73129 -2.254833,-1.2728 -4.849407,-2.91644 -5.122299,-5.75061 0.08401,-1.65819 -1.26637,-3.2023 -2.978322,-3.1658 z"
     id="ico_greenlight-path20"
     inkscape:connector-curvature="0" />
  <path
     inkscape:connector-curvature="0"
     id="path4068"
     style="fill:#ffffff;fill-rule:evenodd"
     d="m 24.367182,19.49151 c 0,2.37784 0.05713,4.3586 -1.141628,6.47328 -0.97118,1.7176 -2.511769,2.77494 -4.224678,2.77494 -2.340384,0 -3.710056,-1.78502 -3.710056,-4.4265 0,-5.1968 4.662036,-6.14176 9.076362,-6.14176 v 1.32004 z m 6.15299,14.87816 c -0.403644,0.36197 -0.986632,0.38773 -1.442722,0.14189 -2.026646,-1.68482 -2.39002,-2.46307 -3.497932,-4.06641 -3.348557,3.41224 -5.721719,4.43587 -10.060655,4.43587 -5.137793,0 -9.1334896,-3.17062 -9.1334896,-9.51139 0,-4.9533 2.682684,-8.32199 6.5069966,-9.97216 3.311096,-1.45349 7.935203,-1.71759 11.474344,-2.11515 v -0.79183 c 0,-1.4535 0.113788,-3.17109 -0.741263,-4.42932 -0.743134,-1.12524 -2.170403,-1.58788 -3.425819,-1.58788 -2.327273,0 -4.397,1.19173 -4.904598,3.67025 -0.106296,0.55068 -0.50713,1.09387 -1.060151,1.12243 L 8.320708,10.62586 C 7.8210703,10.51347 7.2652408,10.1117 7.4094667,9.34843 8.7688376,2.16666 15.248208,0 21.055618,0 c 2.970199,0 6.850235,0.79184 9.190151,3.03716 2.969263,2.77541 2.684558,6.47938 2.684558,10.51067 v 9.50483 c 0,2.86156 1.187518,4.11557 2.301986,5.65757 0.389596,0.55442 0.47763,1.21468 -0.01873,1.61973 -1.246987,1.04516 -3.46328,2.96786 -4.680299,4.05236 l -0.01311,-0.0126 z m 9.678082,2.51318 c -0.566599,-0.72722 -3.747518,-0.34464 -5.17666,-0.17373 -0.432675,0.052 -0.498701,-0.32544 -0.108168,-0.59891 2.536586,-1.78362 6.695239,-1.26946 7.177551,-0.67243 0.486995,0.6036 -0.126899,4.77068 -2.505681,6.76081 -0.365714,0.30624 -0.712697,0.14282 -0.552083,-0.26083 0.535694,-1.33736 1.732577,-4.32863 1.165041,-5.05491 z M 38.35423,38.9891 C 33.920237,42.25946 27.494249,44 21.960305,44 14.203041,44 7.2193508,41.13282 1.9331179,36.3598 c -0.4148817,-0.37415 -0.04449,-0.88643 0.4542166,-0.59704 5.7020516,3.32 12.7536405,5.31808 20.0379555,5.31808 4.913964,0 10.31539,-1.01988 15.283203,-3.12801 0.751565,-0.31842 1.379038,0.49496 0.645737,1.03627 z" />
  <path
     id="path4099"
     style="fill:#ffffff"
     d="m 13.281311,190.94139 c 0.09615,3.61114 2.825112,6.521 5.921735,8.07333 3.05283,2.07858 5.56184,4.83866 8.546772,7.01374 1.654808,1.28501 3.403579,2.83985 5.656245,2.66957 1.713662,0.40926 4.43018,-0.81017 5.405442,0.96218 0.54945,2.94891 -0.04373,6.08012 -1.246476,8.80593 -1.118354,2.20596 -2.383594,4.43218 -2.506687,6.96096 -0.676762,2.17679 -3.523796,1.43777 -5.264028,1.61103 -2.930556,-0.13708 -5.417596,1.95066 -8.352509,1.91715 -3.533778,0.18477 -7.081248,0.08 -10.615505,0.02 -1.6432557,0.0311 -2.4933919,-2.81314 -0.405955,-2.15325 1.265009,-0.0973 2.625427,0.24651 3.802468,-0.29324 1.757165,-1.17409 0.154916,-3.66821 -1.681367,-3.142 -1.684426,-0.0648 -3.4043254,0.13817 -5.0637385,-0.11798 -1.4789563,-0.63143 -0.8126668,-2.72689 0.7229965,-2.16891 2.422074,-0.0229 4.848794,0.0461 7.267938,-0.0349 2.293091,-0.41954 1.366012,-3.9553 -0.825367,-3.40038 -2.46434,-0.0514 -4.9447844,0.10816 -7.3980461,-0.09 -1.9101396,-0.0306 -2.2185476,-3.86093 -0.2842228,-3.69564 3.0092809,-0.0226 6.0231509,0.0456 9.0295039,-0.0349 2.292699,-0.42041 1.366777,-3.95545 -0.825227,-3.40034 -2.912996,-0.0204 -5.8294245,0.0411 -8.7402489,-0.0311 -2.4524311,-0.34182 -1.4586468,-4.08853 0.8519423,-3.42126 2.4512243,-0.063 4.9220716,0.14386 7.3576176,-0.14049 2.868276,-0.40285 1.452841,-3.19629 -0.110713,-4.26756 -2.11288,-2.61315 -4.6127779,-5.82565 -3.691216,-9.39884 0.247246,-1.20802 1.27353,-2.00999 2.448646,-2.24303 z m -4.92e-4,-2.94071 c -3.016422,0.17757 -5.4619424,2.85335 -5.5482347,5.82761 -0.4587293,3.86699 1.8682565,7.34094 4.1734657,10.22328 -2.1103389,0.0628 -4.2426887,-0.14361 -6.3356151,0.14184 -3.2753109,0.59488 -4.68568078,4.96107 -2.5632998,7.42241 1.4787582,1.24432 -1.1951327,3.35081 -0.1757966,5.19469 0.1093844,1.68945 2.4755089,2.42428 0.9902262,3.9764 -0.5966,2.02119 0.5017518,4.35397 2.4582335,5.17002 -0.6820858,2.63886 1.2231273,5.6154 4.0015048,5.9078 3.58401,0.18091 7.192354,0.15735 10.782991,0.0631 2.681488,0.0238 5.143287,-1.06837 7.632829,-1.8897 2.710396,-0.24979 5.929499,0.45162 8.052759,-1.70069 1.695734,-1.67327 1.061369,-4.28073 2.276995,-6.19994 1.625886,-2.85801 2.75538,-6.00727 2.914927,-9.31066 0.208343,-2.41383 -0.02535,-5.73134 -2.682564,-6.73384 -2.25689,-0.60711 -4.638402,-0.0783 -6.929317,-0.44466 -4.002372,-2.44655 -7.208624,-5.94083 -10.948483,-8.73129 -2.254833,-1.2728 -4.849407,-2.91644 -5.122299,-5.75061 0.08401,-1.65819 -1.26637,-3.2023 -2.978322,-3.1658 z M 26.57,561.995 c -0.31,1.03 -1.56,1.31 -2.35,1.96 -1.9,1.18 -3.76,2.44 -5.69,3.57 -1.41,0.19 -1.05,-1.45 -1.09,-2.32 0.02,-2.72 -0.04,-5.44 0.03,-8.15 0.51,-1.26 1.74,-0.2 2.45,0.25 2.08,1.32 4.17,2.65 6.25,3.97 l 0.29,0.31 0.11,0.41 z m 10.589999,15.47 h 3.66 c -0.5,0.23 -1.42,0.03 -2.08,0.1 -0.48,-0.07 -1.28,0.14 -1.58,-0.1 z m 5.25,-34.21 c -2.38,0.02 -4.77,-0.04 -7.15,0.03 -1.56,0.33 -1.24,2.09 -1.27,3.28 v 3.17 H 10.020001 c -0.02,-1.74 0.04,-3.48 -0.03,-5.21 -0.3299999,-1.57 -2.0899999,-1.24 -3.2899998,-1.27 -1.8099999,0.02 -3.6199998,-0.04 -5.4199998,0.03 -1.56999989,0.33 -1.2399999,2.09 -1.2699999,3.29 v 32.57 c -0.01,1.56 1.6899999,1.69 2.8599999,1.58 1.9599999,-0.02 3.9199998,0.04 5.8699997,-0.03 2.0600004,-0.68 1.01,-3.32 1.2700004,-4.94 0,-0.72 -0.2400004,-1.68 0.81,-1.34 h 23.159998 c 0.07,1.78 -0.14,3.59 0.12,5.35 0.68,1.42 2.41,0.85 3.66,0.97 1.65,-0.02 3.31,0.04 4.96,-0.03 1.57,-0.33 1.24,-2.09 1.27,-3.29 v -32.57 c 0.02,-0.85 -0.74,-1.6 -1.58,-1.58 z m -35.5499983,34.3 H 3.2000009 v -3.61 h 3.6599998 v 3.61 z m 0,-7.13 H 3.2000009 v -3.51 h 3.6599998 v 3.51 z m 0,-7.03 H 3.2000009 v -3.51 h 3.6599998 v 3.51 z m 0,-7.03 H 3.2000009 v -3.51 h 3.6599998 v 3.51 z m 0,-7.03 H 3.2000009 v -2.92 h 3.6599998 v 2.92 z m 27.1299983,21.91 H 10.020001 v -18.34 h 23.969998 v 18.34 z m 6.83,6.32 h -3.66 v -3.61 h 3.66 v 3.61 z m 0,-7.13 h -3.66 v -3.51 h 3.66 v 3.51 z m 0,-7.03 h -3.66 v -3.51 h 3.66 v 3.51 z m 0,-7.03 h -3.66 v -3.51 h 3.66 v 3.51 z m 0,-7.03 h -3.66 v -2.92 h 3.66 v 2.92 z m -37.6299981,28.11 h 3.6599998 c -0.5,0.23 -1.4199999,0.03 -2.0799999,0.1 -0.48,-0.07 -1.28,0.14 -1.5799999,-0.1 z m 34.0049981,-59.06 c -3.8,1.3 -7.499999,2.7 -11.299999,4 -0.3,-0.8 -0.6,-1.6 -0.9,-2.4 3.8,-1.3 7.5,-2.7 11.299999,-4 0.3,0.8 0.6,1.6 0.9,2.4 z m -1.3,-3.7 c -3.799999,1.3 -7.499999,2.7 -11.299999,4 -0.3,-0.8 -0.6,-1.6 -0.9,-2.4 3.8,-1.3 7.5,-2.7 11.299999,-4 0.3,0.8 0.6,1.6 0.9,2.4 z m -23.799999,5.7 c 2.6,-0.9 5.3,-1.9 7.9,-2.8 0.7,2 1.5,4.1 2.2,6.1 -2.6,0.9 -5.3,1.9 -7.9,2.8 -0.8,-2 -1.5,-4 -2.2,-6.1 z m -2.1999997,-6.1 c 7.5999997,-2.7 15.2999997,-5.5 22.8999997,-8.2 0.399999,1.2 0.899999,2.4 1.299999,3.7 -7.599999,2.7 -15.299999,5.5 -22.899999,8.2 -0.399999,-1.2 -0.899999,-2.4 -1.2999997,-3.7 z m -6.7999998,-3.4 c 0.6999999,1.9 1.3999999,3.9 2.0999999,5.8 -1.7,0.6 -3.5,1.2 -5.1999999,1.8 1.8999999,5.3 3.7999999,10.7 5.6999998,16 1.0000001,2.3 3.9,3 5.9999997,1.9 10,-3.6 19.9,-7.1 29.899999,-10.7 2.3,-1 3.000001,-3.9 1.9,-6 -2.5,-6.8 -4.9,-13.7 -7.4,-20.6 -10.999999,3.9 -21.999999,7.9 -32.9999985,11.8 z m 7.6000005,21.4 c 0.3,2 -2.4000007,1.5 -2.4000007,-0.1 l -4.1999999,-11.7 c 0.7,-0.3 1.4,-0.5 2.0999999,-0.8 1.5000001,4.2 3,8.4 4.5000007,12.5 z m 29.999998,-10.7 c 0.3,1.4 -1.4,1.4 -2.2,1.8 -8.199999,2.9 -16.299999,5.9 -24.499999,8.7 -0.1,-0.8 -0.4,-1.7 -0.8,-2.6 -2,-5.5 -3.8999997,-11.1 -5.8999996,-16.7 8.8999996,-3.2 17.8999996,-6.4 26.8999986,-9.6 2.2,6.1 4.4,12.2 6.5,18.3 z M 3.4825011,452.00027 c -0.1483,0.002 -0.2952999,0.0218 -0.4363999,0.0532 -0.9040999,0.20166 -1.6393999,0.98211 -1.6393999,2.5548 v 38.748 c 0,1.4811 0.58283,2.5254 1.6605999,2.6293 0.4939299,0.0627 1.0836998,-0.0731 1.7670998,-0.44709 1.4146998,-0.77427 16.603998,-9.0846 26.941997,-14.743 5.207399,-2.8501 9.186799,-5.0284 9.548499,-5.2267 1.0791,-0.59067 2.2097,-2.0951 0,-3.2999 -0.71023,-0.38799 -4.5766,-2.5035 -9.548499,-5.216 L 4.834401,452.3519 c -0.43866,-0.23938 -0.90703,-0.35802 -1.3518999,-0.35128 z M 5.5,411.8994 0,418.7744 v 2.4062 c 0,5.5 8.9375,5.5 8.9375,0 0,5.5 8.5938,5.5 8.5938,0 0,5.5 8.9375,5.5 8.9375,0 0,5.5 8.5938,5.5 8.5938,0 0,5.5 8.9375,5.5 8.9375,0 v -2.4062 l -5.5,-6.875 h -33 z m 8.3574,15.812 c -2.0969,0.0344 -5.6719,2.0582 -6.1875,4.877 l -2.75,10.731 c -0.51562,2.75 0.99688,4.7803 3.7812,4.7803 1.925,0 4.3656,-1.2396 6.0156,-4.7803 h 14.674 c 1.65,3.5406 4.0906,4.7803 6.0156,4.7803 2.7844,0 4.2969,-2.0303 3.7812,-4.7803 l -2.75,-10.731 c -0.51562,-2.8188 -4.0906,-4.8426 -6.1875,-4.877 -2.7844,-0.0344 -3.7125,0.58438 -4.125,2.75 h -8.1426 c -1.1,-2.1656 -2.0281,-2.7844 -4.125,-2.75 z m 8.143,3.782 6.5312,6.875 h -2.75 v 3.4375 h -7.5625 v -3.4375 h -2.75 l 6.531,-6.875 z M 44.000002,407.761 v -3.5251 -4.3084 -7.4296 c 0,-1.9536 -1.571901,-3.5373 -3.525101,-3.5373 h -12.142 c -1.9532,0 -3.5251,1.5837 -3.5251,3.5373 v 11.738 c 0,1.9536 1.5719,3.5251 3.5251,3.5251 h 7.8335 4.3084 3.5251 z m 0,-43.522 h -3.525101 -4.3084 -7.4296 c -1.9536,0 -3.5373,1.5719 -3.5373,3.5251 v 12.142 c 0,1.9532 1.5837,3.5251 3.5373,3.5251 h 11.738 c 1.9536,0 3.525101,-1.5719 3.525101,-3.5251 v -7.8335 -4.3084 -3.5251 z M 0.28000051,407.761 H 3.8051006 8.1135007 15.543101 c 1.9536,0 3.5374,-1.5719 3.5374,-3.5251 v -12.142 c 0,-1.9532 -1.5838,-3.5251 -3.5374,-3.5251 H 3.8051006 c -1.9536001,0 -3.52510009,1.5719 -3.52510009,3.5251 v 7.8335 4.3084 3.5251 z M 5.0000002e-7,364.377 v 3.5251 4.3084 7.4296 c 0,1.9536 1.57189999999998,3.5373 3.52509999999998,3.5373 H 15.667101 c 1.9532,0 3.525,-1.5837 3.525,-3.5373 v -11.738 c 0,-1.9536 -1.5718,-3.5251 -3.525,-3.5251 H 7.8335006 3.5251005 5.0000002e-7 z M 23.467,353.478 c -1.2584,-0.5104 -2.295,-2.2418 -2.7485,-4.5917 -0.0528,-0.2728 -0.10193,-0.52653 -0.10963,-0.56393 -0.0077,-0.037 -0.03483,-0.0678 -0.0605,-0.0678 -0.02567,0 -0.40773,-0.0403 -0.84883,-0.0895 -1.4439,-0.16097 -1.8315,-0.18627 -3.1221,-0.20277 -1.2965,-0.0165 -1.8084,0.004 -2.7804,0.1133 -4.3563,0.48766 -8.5437,2.3437 -11.587,5.1355 -0.16536,0.1518 -0.3157,0.27243 -0.33403,0.26803 -0.0504,-0.012 -1.876,-1.921 -1.876,-1.961 9.2079e-7,-0.069 0.946,-0.866 1.6075,-1.354 1.9991,-1.4755 4.6409,-2.7558 7.2174,-3.498 1.5847,-0.4565 2.9685,-0.7128 4.7655,-0.88293 0.54266,-0.0513 3.0745,-0.0517 3.6681,-3.6e-4 0.9647,0.0832 1.9734,0.2024 3.0492,0.3597 l 0.1177,0.0172 -0.02053,-0.44806 c -0.04547,-0.97716 -0.44256,-3.0792 -0.70803,-3.74801 -0.42423,-1.0681 -1.1231,-1.9254 -1.9433,-2.3841 -1.9774,-1.0545 -6.5882,1.9199 -8.2423,1.1543 -0.4191,-0.1463 -0.5918,-0.25886 -0.81253,-0.3894 -0.16573,-0.0979 -0.55036,-0.4532 -0.55036,-0.5082 0,-0.0147 -0.0341,-0.077 -0.0759,-0.1386 -0.1958,-0.2882 -0.26657,-0.88 -0.15547,-1.298 0.1639,-0.61673 0.4752,-1.0967 1.1462,-1.7659 0.704,-0.70216 1.6097,-1.4234 2.7834,-2.2165 2.9333,-1.9822 6.0045,-3.3106 8.8245,-3.817 1.6786,-0.28783 3.5031,-0.19323 5.1172,0.0532 1.1213,0.18407 2.1578,0.52726 2.8563,0.94563 0.14593,0.0873 0.4631,0.30543 0.70473,0.48473 l 0.43963,0.32596 0.31203,-0.14666 c 0.52983,-0.24933 0.93243,-0.352 1.0762,-0.275 0.02933,0.0158 0.077,0.0902 0.1056,0.16537 0.0286,0.0752 0.06013,0.13677 0.06967,0.13677 0.0095,0 0.1936,-0.0755 0.40883,-0.16757 2.2946,-0.98266 4.6735,-1.1627 6.9014,-0.52176 1.1851,0.341 2.1655,0.8888 2.9164,1.6295 1.0853,1.0703 1.8249,2.4864 2.2187,4.2467 0.2255,1.2148 0.28783,1.7431 0.05573,3.1108 -0.28233,1.67091 -1.0685,3.23431 -2.2051,4.38531 -1.2393,1.2547 -2.7969,2.1267 -4.8664,2.724 -1.5657,0.4521 -4.2837,0.91703 -6.2487,1.0692 -0.23136,0.018 -0.4917,0.04 -0.57786,0.0491 l -0.15693,0.0165 -0.3806,0.57676 c -1.3053,1.9778 -2.7434,3.4459 -3.8771,3.9585 -0.4367,0.19726 -0.517,0.21156 -1.1986,0.21083 l -0.63433,-0.001 z m 7.9434,-6.5013 c 1.7208,-0.1386 3.6556,-0.42936 4.8994,-0.73626 1.7538,-0.43303 2.868,-0.9658 4.0553,-1.94 1.2184,-0.99953 2.0247,-2.4079 2.3496,-4.1033 0.10487,-0.54743 0.13273,-1.5921 0.05757,-2.1648 -0.3201,-2.4394 -1.5748,-4.3662 -3.4598,-5.3141 -0.60426,-0.30396 -1.7941,-0.62076 -2.6866,-0.71536 -1.4806,-0.1573 -3.1372,0.0821 -4.6343,0.66916 -0.1903,0.0744 -0.34796,0.1375 -0.3509,0.1397 -0.0026,0.003 0.01503,0.0785 0.0396,0.1694 0.08507,0.31423 0.01943,0.6534 -0.18993,0.98523 -0.055,0.0873 -0.1001,0.16537 -0.1001,0.1738 0,0.008 0.07297,0.1199 0.16207,0.2475 0.8844,1.2668 1.4524,2.6979 1.584,3.9904 0.18517,1.8205 -0.68566,5.1707 -2.1318,8.2008 -0.11623,0.24383 -0.2002,0.44366 -0.1859,0.44366 0.0143,0 0.2805,-0.0205 0.5918,-0.0455 z M 42.176001,297.481 c -0.55482,3.1077 -3.1226,13.944 -9.307199,13.944 -6.184601,0 3.339399,-33.999 3.339399,-33.999 h -6.432199 c 0,0 -2.726701,7.0098 -4.448201,16.18 h -5.4937 c 0.14397,-1.8857 0.21245,-3.7942 0.18172,-5.6913 -0.247,-15.096 -9.029,-12.251 -12.9880003,-8.7852 -3.7632001,3.2938 -6.74360019,9.1602 -7.0280002,13.771 0.32657001,0.081 2.9461001,0.706 2.9461001,0.706 0,0 1.9787,-9.0325 8.1641994,-9.0325 6.184601,0 -3.3402994,34.191 -3.3402994,34.191 H 14.20202 c 0,0 3.262201,-8.4882 4.902101,-18.971 h 5.2874 c -0.3055,2.7126 -0.47493,5.5095 -0.43016,8.2907 0.24756,15.097 9.029801,12.251 12.988,8.7858 3.9583,-3.465 7.0502,-9.7751 7.0502,-14.478 -0.34237,-8.8e-4 -1.3949,-4.5307 -1.8242,-4.9117 z m -3.151,-65.48099 c -1.6904,0 -3.1364,1.0273 -3.7346,2.48 H 5.3354007 c -1.2252001,-0.003 -4.2733001,1.6116 -4.2818001,3.904 l -0.11403008,33.445 c -0.007,1.5882 2.21180008,4.1697 4.03730008,4.052 l 33.0890004,0.11859 c 1.4672,-9.4e-4 4.2774,-1.7473 4.2745,-3.2145 l 0.11977,-22.175 c -0.005,-1.6995 -2.1006,-3.3176 -3.6815,-3.3184 l -20.99,-0.35576 c -1.5858,-0.003 -4.043801,2.3329 -4.044601,3.9187 l -0.11858,8.5367 c -0.11789,1.3413 2.681301,3.673 4.259801,3.5629 l 7.5678,0.22864 c 0.60949,1.4283 2.0401,2.436 3.7126,2.436 2.226801,0 4.0355,-1.7754 4.0355,-3.9694 0,-2.194 -1.808699,-3.9694 -4.0355,-3.9694 -1.569,0 -2.9226,0.88359 -3.5879,2.1718 l -8.6139,-0.0954 v -9.2522 h 22.166 l 0.10272,22.283 H 4.1685806 l 0.33018,-34.969 H 35.461761 c 0.67423,1.2612 2.0171,2.1204 3.5659,2.1204 2.2268,0 4.0355,-1.7754 4.0355,-3.9694 0,-2.194 -1.8087,-3.9694 -4.0355,-3.9694 z m 0,2.1938 c 0.99463,0 1.805,0.79561 1.805,1.7756 0,0.97999 -0.81033,1.7756 -1.805,1.7756 -0.99462,0 -1.7976,-0.79561 -1.7976,-1.7756 0,-0.98 0.80299,-1.7756 1.7976,-1.7756 z m -9.8612,25.68 c 0.994621,0 1.805001,0.7956 1.805001,1.7756 0,0.98 -0.81033,1.7756 -1.805001,1.7756 -0.99463,0 -1.7976,-0.7956 -1.7976,-1.7756 0,-0.98 0.80299,-1.7756 1.7976,-1.7756 z M 0,176 v 12 h 12 v -4.56 h -1.8 v 2.76 H 1.8 v -8.4 H 4.56 V 176 z m 6.48,0 2.1338,2.2162 -2.2913,2.3438 H 4.56 v 2.88 h 2.88 v -1.4625 L 9.9338,179.5362 11.925,181.52 12,176 z M 22,137.1562 14.438,143.344 4.8125,142.312 0,155.719 l 10.656,9.625 11.344,5.5 11.344,-5.5 L 44,155.719 39.188,142.312 29.562,143.344 22,137.1562 z m 0,2.4062 6.875,5.8438 8.9375,-1.0312 3.4375,10.656 -7.9062,6.5312 H 28.875 l 8.9375,-7.2188 -2.406,-7.218 -7.562,1.031 -5.844,-5.156 -5.844,5.156 -7.5622,-1.031 -2.4063,7.219 8.9375,7.2188 h -4.4688 l -7.906,-6.532 3.4375,-10.656 8.9375,1.031 6.875,-5.8435 z m 0,6.1875 4.125,3.7812 c 0,3.4375 0,8.25 -4.125,13.062 -4.125,-4.8125 -4.125,-9.625 -4.125,-13.062 L 22,145.7501 z m -11.688,3.7812 4.8125,0.6875 c 0,3.4375 0.6875,7.2188 3.0938,11.344 l -9.2812,-7.9062 1.375,-4.125 z m 23.375,0 1.375,4.125 -9.2812,7.9062 c 2.407,-4.124 3.094,-7.906 3.094,-11.343 l 4.8125,-0.6875 z m -21.312,14.094 h 19.25 l -9.625,4.813 -9.625,-4.813 z m 1.865005,-65.95642 29.764,0 -14.236,24.65761 -29.764,0 z M 35.337,65.927002 h 8.6632 v 4.616599 H 38.1297 L 35.337,65.927002 z m -18.694,0.11399 h 10.658 c 0.91112,1.578099 1.8222,3.156199 2.7334,4.734299 h -16.184 c 0.93092,-1.5781 1.8618,-3.1562 2.7928,-4.734299 z m 18.295,10.714999 c 1.3002,-0.75066 2.6004,-1.5013 3.9005,-2.252 2.9091,2.1303 2.8034,6.1593 2.2526,9.3508 -0.16345,2.1801 -1.324,-1.8774 -2.4754,-2.2915 -1.5424,-1.3347 -3.2461,-2.6833 -3.6778,-4.8074 z m -3.5907,-6.1554 4.0781,-2.3545 c 0,0 -7.8705,-13.681999 -11.854,-20.492999 -1.472,-1.4881 -4.8251,0.43172 -4.1099,2.4862 3.929,6.8047 11.885,20.361999 11.885,20.361999 z m 0.56995,1.2539 c 1.4328,-0.82724 2.8656,-1.6545 4.2985,-2.4817 0.69648,1.2063 1.393,2.4127 2.0894,3.619 l -4.2668,2.4634 c -0.70702,-1.2002 -1.414,-2.4005 -2.1211,-3.6008 z m -16.756,-15.160999 4.2491,2.4532 c 0,0 0.6771,-1.0791 1.3135,-2.1221 0.96387,-2.2659 -2.9013,-4.2746 -4.3883,-2.2384 -0.39145,0.63577 -1.1744,1.9073 -1.1744,1.9073 z m -11.627,19.776999 c 1.4456,0.87983 2.8911,1.7597 4.3366,2.6395 l -6.1776,5.6646 c 0.61365,-2.768 1.2273,-5.5361 1.841,-8.3041 z m 11.057,-18.636999 c 1.3923,0.80383 2.7846,1.6077 4.1768,2.4115 -3.4606,5.9939 -6.9212,11.987999 -10.382,17.981999 -1.4759,-0.8521 -2.9518,-1.7042 -4.4276,-2.5563 3.5442,-5.9456 7.0884,-11.890999 10.633,-17.836999 z m -14.591,8.093 h 8.8912 c -0.9095,1.575299 -1.819,3.150599 -2.7285,4.725899 H 2.5e-4 v -4.725899 z" />
</svg>
