<?xml version="1.0" encoding="UTF-8" standalone="no"?>
<svg
   xmlns:dc="http://purl.org/dc/elements/1.1/"
   xmlns:cc="http://creativecommons.org/ns#"
   xmlns:rdf="http://www.w3.org/1999/02/22-rdf-syntax-ns#"
   xmlns:svg="http://www.w3.org/2000/svg"
   xmlns="http://www.w3.org/2000/svg"
   xmlns:sodipodi="http://sodipodi.sourceforge.net/DTD/sodipodi-0.dtd"
   xmlns:inkscape="http://www.inkscape.org/namespaces/inkscape"
   width="44"
   height="44"
   version="1.1"
   id="svg4944"
   inkscape:version="0.48.4 r9939"
   sodipodi:docname="icon_itchio.svg">
  <metadata
     id="metadata4985">
    <rdf:RDF>
      <cc:Work
         rdf:about="">
        <dc:format>image/svg+xml</dc:format>
        <dc:type
           rdf:resource="http://purl.org/dc/dcmitype/StillImage" />
        <dc:title />
      </cc:Work>
    </rdf:RDF>
  </metadata>
  <sodipodi:namedview
     pagecolor="#ffffff"
     bordercolor="#666666"
     borderopacity="1"
     objecttolerance="10"
     gridtolerance="10"
     guidetolerance="10"
     inkscape:pageopacity="0"
     inkscape:pageshadow="2"
     inkscape:window-width="901"
     inkscape:window-height="480"
     id="namedview4983"
     showgrid="false"
     fit-margin-top="0"
     fit-margin-left="0"
     fit-margin-right="0"
     fit-margin-bottom="0"
     inkscape:zoom="1.84375"
     inkscape:cx="-0.81355932"
     inkscape:cy="47.078602"
     inkscape:window-x="0"
     inkscape:window-y="0"
     inkscape:window-maximized="0"
     inkscape:current-layer="svg4944" />
  <defs
     id="defs4946">
    <radialGradient
       id="g1"
       gradientUnits="userSpaceOnUse"
       cx="400"
       cy="200"
       r="300"
       fx="400"
       fy="200">
      <stop
         offset="0%"
         stop-color="#ffffff"
         id="stop4949" />
      <stop
         offset="50%"
         stop-color="#9bdee3"
         id="stop4951" />
      <stop
         offset="100%"
         stop-color="red"
         id="stop4953" />
    </radialGradient>
    <linearGradient
       id="g2"
       x1="0.5"
       y1="0"
       x2="0.5"
       y2="1">
      <stop
         offset="5%"
         stop-color="#ffffff"
         id="stop4956" />
      <stop
         offset="95%"
         stop-color="#e1e2dd"
         id="stop4958" />
    </linearGradient>
    <linearGradient
       id="g3"
       x1="0.5"
       y1="0"
       x2="0.5"
       y2="1">
      <stop
         offset="5%"
         stop-color="#ffffff"
         id="stop4961" />
      <stop
         offset="95%"
         stop-color="#e1e2dd"
         id="stop4963" />
    </linearGradient>
  </defs>
  <!-- Box background -->
  <!-- Awning shadow -->
  <!-- Top, darker part of awning -->
  <path
     style="fill:#ffffff;fill-opacity:1"
     d="m 5.5,3.899414 -5.5,6.875 0,2.40625 c 0,5.5 8.9375,5.5 8.9375,0 0,5.5 8.59375,5.5 8.59375,0 0,5.5 8.9375,5.5 8.9375,0 0,5.5 8.59375,5.5 8.59375,0 0,5.5 8.9375,5.5 8.9375,0 l 0,-2.40625 -5.5,-6.875 -33,0 z m 8.357422,15.8125 c -2.096875,0.03437 -5.6718751,2.058203 -6.1875001,4.876953 l -2.75,10.731449 c -0.515625,2.75 0.996875,4.78027 3.78125,4.78027 1.9250001,0 4.3656251,-1.23965 6.0156251,-4.78027 l 14.673828,0 c 1.65,3.54062 4.090625,4.78027 6.015625,4.78027 2.784375,0 4.296875,-2.03027 3.78125,-4.78027 l -2.75,-10.731449 c -0.515625,-2.81875 -4.090625,-4.842578 -6.1875,-4.876953 -2.784375,-0.03437 -3.7125,0.584375 -4.125,2.75 l -8.142578,0 c -1.1,-2.165625 -2.028125,-2.784375 -4.125,-2.75 z M 22,23.493164 l 6.53125,6.875002 -2.75,0 0,3.4375 -7.5625,0 0,-3.4375 -2.75,0 L 22,23.493164 z"
     id="path4969"
     inkscape:connector-curvature="0" />
  <!-- Top, lighter part of awning -->
  <!-- Awning, dark parts -->
  <!-- Awning, light parts -->
  <!-- Controller shadow -->
  <!-- Controller -->
  <!-- Arrow -->
</svg>
