<?xml version="1.0" encoding="UTF-8" standalone="no"?>
<svg
   xmlns:dc="http://purl.org/dc/elements/1.1/"
   xmlns:cc="http://creativecommons.org/ns#"
   xmlns:rdf="http://www.w3.org/1999/02/22-rdf-syntax-ns#"
   xmlns:svg="http://www.w3.org/2000/svg"
   xmlns="http://www.w3.org/2000/svg"
   xmlns:sodipodi="http://sodipodi.sourceforge.net/DTD/sodipodi-0.dtd"
   xmlns:inkscape="http://www.inkscape.org/namespaces/inkscape"
   width="44"
   height="44"
   version="1.1"
   id="svg5514"
   inkscape:version="0.48.4 r9939"
   sodipodi:docname="icon_desura.svg">
  <metadata
     id="metadata5529">
    <rdf:RDF>
      <cc:Work
         rdf:about="">
        <dc:format>image/svg+xml</dc:format>
        <dc:type
           rdf:resource="http://purl.org/dc/dcmitype/StillImage" />
        <dc:title />
      </cc:Work>
    </rdf:RDF>
  </metadata>
  <sodipodi:namedview
     pagecolor="#ffffff"
     bordercolor="#666666"
     borderopacity="1"
     objecttolerance="10"
     gridtolerance="10"
     guidetolerance="10"
     inkscape:pageopacity="0"
     inkscape:pageshadow="2"
     inkscape:window-width="1104"
     inkscape:window-height="480"
     id="namedview5527"
     showgrid="false"
     fit-margin-top="0"
     fit-margin-left="0"
     fit-margin-right="0"
     fit-margin-bottom="0"
     inkscape:zoom="1.84375"
     inkscape:cx="-85.423728"
     inkscape:cy="50"
     inkscape:window-x="0"
     inkscape:window-y="0"
     inkscape:window-maximized="0"
     inkscape:current-layer="svg5514" />
  <defs
     id="defs5516">
    <linearGradient
       id="g1"
       x1="0.5"
       y1="0"
       x2="0.5"
       y2="1">
      <stop
         offset="5%"
         stop-color="#ffffff"
         id="stop5519" />
      <stop
         offset="95%"
         stop-color="#e1e2dd"
         id="stop5521" />
    </linearGradient>
  </defs>
  <path
     d="M 22,5.15625 14.4375,11.34375 4.8125,10.3125 0,23.71875 l 10.65625,9.625 11.34375,5.5 11.34375,-5.5 L 44,23.71875 39.1875,10.3125 29.5625,11.34375 22,5.15625 z m 0,2.40625 6.875,5.84375 8.9375,-1.03125 3.4375,10.65625 -7.90625,6.53125 -4.46875,0 8.9375,-7.21875 L 35.40625,15.125 27.84375,16.15625 22,11 16.15625,16.15625 8.59375,15.125 6.1875,22.34375 l 8.9375,7.21875 -4.46875,0 L 2.75,23.03125 6.1875,12.375 15.125,13.40625 22,7.5625 z m 0,6.1875 4.125,3.78125 c 0,3.4375 0,8.25 -4.125,13.0625 -4.125,-4.8125 -4.125,-9.625 -4.125,-13.0625 L 22,13.75 z m -11.6875,3.78125 4.8125,0.6875 c 0,3.4375 0.6875,7.21875 3.09375,11.34375 l -9.28125,-7.90625 1.375,-4.125 z m 23.375,0 1.375,4.125 -9.28125,7.90625 C 28.1875,25.4375 28.875,21.65625 28.875,18.21875 l 4.8125,-0.6875 z M 12.375,31.625 l 19.25,0 L 22,36.4375 12.375,31.625 z"
     id="path5523"
     inkscape:connector-curvature="0"
     style="fill:#ffffff;fill-opacity:1" />
</svg>
