<?xml version="1.0" encoding="UTF-8" standalone="no"?>
<svg
   xmlns:dc="http://purl.org/dc/elements/1.1/"
   xmlns:cc="http://creativecommons.org/ns#"
   xmlns:rdf="http://www.w3.org/1999/02/22-rdf-syntax-ns#"
   xmlns:svg="http://www.w3.org/2000/svg"
   xmlns="http://www.w3.org/2000/svg"
   xmlns:sodipodi="http://sodipodi.sourceforge.net/DTD/sodipodi-0.dtd"
   xmlns:inkscape="http://www.inkscape.org/namespaces/inkscape"
   width="44"
   height="44"
   version="1.1"
   id="svg3554"
   inkscape:version="0.48.4 r9939"
   sodipodi:docname="icon_appstore.svg">
  <metadata
     id="metadata3587">
    <rdf:RDF>
      <cc:Work
         rdf:about="">
        <dc:format>image/svg+xml</dc:format>
        <dc:type
           rdf:resource="http://purl.org/dc/dcmitype/StillImage" />
        <dc:title />
      </cc:Work>
    </rdf:RDF>
  </metadata>
  <sodipodi:namedview
     pagecolor="#ffffff"
     bordercolor="#666666"
     borderopacity="1"
     objecttolerance="10"
     gridtolerance="10"
     guidetolerance="10"
     inkscape:pageopacity="0"
     inkscape:pageshadow="2"
     inkscape:window-width="1920"
     inkscape:window-height="1018"
     id="namedview3585"
     showgrid="false"
     inkscape:zoom="0.921875"
     inkscape:cx="-205.16915"
     inkscape:cy="114.18423"
     inkscape:window-x="-8"
     inkscape:window-y="-8"
     inkscape:window-maximized="1"
     inkscape:current-layer="svg3554"
     fit-margin-top="0"
     fit-margin-left="0"
     fit-margin-right="0"
     fit-margin-bottom="0" />
  <defs
     id="defs3556">
    <linearGradient
       id="g1"
       x1="0.5"
       y1="0"
       x2="0.5"
       y2="1">
      <stop
         offset="5%"
         stop-color="#1ad6fd"
         id="stop3559" />
      <stop
         offset="95%"
         stop-color="#1e63f0"
         id="stop3561" />
    </linearGradient>
  </defs>
  <path
     id="path3581"
     style="fill:#ffffff;fill-opacity:1"
     d="m 35.33679,21.927239 c 2.88774,0 5.77547,0 8.66321,0 0,1.53886 0,3.07772 0,4.61658 -1.95682,0 -3.91364,0 -5.87047,0 -0.93091,-1.53886 -1.86183,-3.07772 -2.79274,-4.61658 z m -18.6943,0.11399 c 3.55267,0 7.10535,0 10.65803,0 0.91112,1.57811 1.82224,3.15621 2.73336,4.73432 -5.39472,0 -10.78943,0 -16.18414,0 0.93092,-1.57811 1.86183,-3.15621 2.79275,-4.73432 z m 18.29533,10.71503 c 1.30018,-0.75066 2.60036,-1.50132 3.90053,-2.25197 2.90911,2.13031 2.80344,6.15934 2.25265,9.35085 -0.16345,2.18013 -1.32396,-1.87744 -2.47539,-2.29152 -1.54245,-1.33474 -3.24611,-2.68327 -3.67779,-4.80736 z m -3.59067,-6.15544 4.07813,-2.35451 c 0,0 -7.87049,-13.6821 -11.85356,-20.4934601 -1.47199,-1.48807 -4.82514,0.43172 -4.10989,2.48625 3.92905,6.8047401 11.88532,20.3617201 11.88532,20.3617201 z m 0.56995,1.25388 c 1.43282,-0.82724 2.86564,-1.65448 4.29847,-2.48172 0.69648,1.20634 1.39296,2.41268 2.08944,3.61903 -1.42227,0.82115 -2.84455,1.6423 -4.26683,2.46345 -0.70702,-1.20025 -1.41405,-2.40051 -2.12108,-3.60076 z m -16.75648,-15.16062 4.24911,2.45322 c 0,0 0.6771,-1.07914 1.31351,-2.12213 0.96387,-2.26591 -2.90126,-4.2745598 -4.38827,-2.23842 -0.39145,0.63577 -1.17435,1.90733 -1.17435,1.90733 z m -11.62694,19.7772 c 1.44555,0.87983 2.8911,1.75966 4.33665,2.63948 -2.0592,1.88822 -4.1184,3.77643 -6.1776,5.66465 0.61365,-2.76804 1.2273,-5.53608 1.84095,-8.30413 z m 11.05699,-18.6373 c 1.39228,0.80383 2.78456,1.60766 4.17685,2.4115 -3.46059,5.99391 -6.92117,11.98781 -10.38175,17.98172 -1.47588,-0.8521 -2.95175,-1.7042 -4.42763,-2.55629 3.54418,-5.94564 7.08836,-11.89129 10.63253,-17.83693 z M 0,21.927239 c 2.96373,0 5.92746,0 8.89119,0 -0.9095,1.57531 -1.81901,3.15062 -2.72852,4.72593 -2.05422,0 -4.10845,0 -6.16267,0 0,-1.57531 0,-3.15062 0,-4.72593 z"
     inkscape:connector-curvature="0" />
</svg>
