<?xml version="1.0" encoding="UTF-8" standalone="no"?>
<svg
   xmlns:dc="http://purl.org/dc/elements/1.1/"
   xmlns:cc="http://creativecommons.org/ns#"
   xmlns:rdf="http://www.w3.org/1999/02/22-rdf-syntax-ns#"
   xmlns:svg="http://www.w3.org/2000/svg"
   xmlns="http://www.w3.org/2000/svg"
   xmlns:sodipodi="http://sodipodi.sourceforge.net/DTD/sodipodi-0.dtd"
   xmlns:inkscape="http://www.inkscape.org/namespaces/inkscape"
   width="44.000008"
   height="44"
   version="1.1"
   id="svg7208"
   inkscape:version="0.48.4 r9939"
   sodipodi:docname="icon_indiedb.svg">
  <metadata
     id="metadata7226">
    <rdf:RDF>
      <cc:Work
         rdf:about="">
        <dc:format>image/svg+xml</dc:format>
        <dc:type
           rdf:resource="http://purl.org/dc/dcmitype/StillImage" />
        <dc:title />
      </cc:Work>
    </rdf:RDF>
  </metadata>
  <defs
     id="defs7224" />
  <sodipodi:namedview
     pagecolor="#ffffff"
     bordercolor="#666666"
     borderopacity="1"
     objecttolerance="10"
     gridtolerance="10"
     guidetolerance="10"
     inkscape:pageopacity="0"
     inkscape:pageshadow="2"
     inkscape:window-width="708"
     inkscape:window-height="480"
     id="namedview7222"
     showgrid="false"
     fit-margin-top="0"
     fit-margin-left="0"
     fit-margin-right="0"
     fit-margin-bottom="0"
     inkscape:zoom="1.84375"
     inkscape:cx="-8.7715593"
     inkscape:cy="30.832066"
     inkscape:window-x="0"
     inkscape:window-y="0"
     inkscape:window-maximized="0"
     inkscape:current-layer="svg7208" />
  <!-- White for DB lettering -->
  <path
     d=""
     id="path7210"
     inkscape:connector-curvature="0"
     style="fill:#ffffff" />
  <!-- Controller BG -->
  <path
     d="m 23.466898,33.477896 c -1.258392,-0.510397 -2.294953,-2.241787 -2.748517,-4.59174 -0.0528,-0.272798 -0.101933,-0.52653 -0.109633,-0.56393 -0.0077,-0.03703 -0.03483,-0.06783 -0.0605,-0.06783 -0.02567,0 -0.407731,-0.04033 -0.848829,-0.08947 -1.443925,-0.160966 -1.831489,-0.186266 -3.122148,-0.202766 -1.296526,-0.0165 -1.80839,0.0044 -2.780418,0.1133 -4.3563411,0.487664 -8.5436501,2.343719 -11.5869661,5.135503 -0.165365,0.1518 -0.315697,0.272433 -0.3340302,0.268033 C 1.8256237,33.467263 9.2078616e-7,31.558407 9.2078616e-7,31.517707 9.2078616e-7,31.448777 0.94599542,30.651646 1.6074583,30.163615 c 1.9990546,-1.475458 4.6408726,-2.75585 7.2174246,-3.497979 1.5847241,-0.456498 2.9685161,-0.712796 4.7655391,-0.882929 0.542664,-0.05133 3.074482,-0.0517 3.668112,-3.66e-4 0.964695,0.08323 1.973389,0.202398 3.049183,0.359698 l 0.117699,0.01723 -0.02053,-0.448064 c -0.04547,-0.977161 -0.442564,-3.079249 -0.708029,-3.748045 -0.424231,-1.068094 -1.123094,-1.925356 -1.943323,-2.384053 -1.977421,-1.054527 -6.588228,1.919855 -8.2422521,1.15426 -0.419097,-0.146299 -0.591796,-0.258865 -0.812528,-0.389398 -0.165733,-0.0979 -0.550364,-0.453197 -0.550364,-0.508197 0,-0.01467 -0.0341,-0.077 -0.0759,-0.138599 -0.195799,-0.288198 -0.266566,-0.879995 -0.155466,-1.297993 0.163899,-0.616729 0.475197,-1.096693 1.146193,-1.765856 0.703996,-0.702163 1.6096571,-1.423392 2.7833511,-2.216487 2.933316,-1.982189 6.004498,-3.310614 8.824515,-3.816978 1.678591,-0.287832 3.503113,-0.193232 5.117171,0.05317 1.12126,0.184066 2.15782,0.527264 2.856316,0.945628 0.145933,0.08727 0.463098,0.305432 0.70473,0.484731 l 0.43963,0.325964 0.312032,-0.146665 c 0.52983,-0.249332 0.932428,-0.351998 1.07616,-0.274999 0.02933,0.01577 0.077,0.0902 0.1056,0.165366 0.0286,0.07517 0.06013,0.136766 0.06967,0.136766 0.0095,0 0.193599,-0.07553 0.408831,-0.167566 2.294587,-0.982661 4.673506,-1.162693 6.90136,-0.521764 1.18506,0.340999 2.165521,0.888795 2.91645,1.629458 1.085327,1.070294 1.824889,2.486352 2.218687,4.246708 0.225499,1.21476 0.287832,1.743124 0.05573,3.110782 -0.282332,1.670891 -1.068461,3.234348 -2.205121,4.385308 -1.239326,1.254726 -2.796917,2.126655 -4.866371,2.723951 -1.565658,0.452098 -4.283742,0.917028 -6.248698,1.069194 -0.231365,0.01797 -0.491697,0.03997 -0.577863,0.04913 l -0.156932,0.0165 -0.380598,0.576763 c -1.305326,1.977789 -2.743384,3.445914 -3.877111,3.958511 -0.436697,0.197265 -0.516997,0.211565 -1.198626,0.210832 l -0.63433,-0.0015 z m 7.943421,-6.501329 c 1.720757,-0.138599 3.655646,-0.429364 4.899372,-0.736262 1.753756,-0.433031 2.86805,-0.965795 4.055309,-1.940022 1.218427,-0.999528 2.024722,-2.407886 2.349587,-4.103343 0.104866,-0.54743 0.132732,-1.592058 0.05757,-2.164788 -0.320098,-2.439419 -1.574824,-4.366241 -3.459846,-5.314069 -0.604264,-0.303965 -1.79409,-0.620763 -2.686552,-0.715363 -1.480591,-0.157299 -3.137181,0.08213 -4.634273,0.669163 -0.190299,0.07443 -0.347964,0.137499 -0.350898,0.139699 -0.0026,0.0026 0.01503,0.07847 0.0396,0.169399 0.08507,0.314232 0.01943,0.653397 -0.189932,0.985228 -0.055,0.08727 -0.1001,0.165366 -0.1001,0.173799 0,0.0084 0.07297,0.119899 0.162066,0.247499 0.884395,1.266826 1.452358,2.697917 1.583991,3.99041 0.185166,1.820489 -0.685663,5.170703 -2.131788,8.200819 -0.116232,0.243832 -0.200198,0.443664 -0.185899,0.443664 0.0143,0 0.280499,-0.02053 0.591797,-0.04547 z"
     id="path7212"
     inkscape:connector-curvature="0"
     style="fill:#ffffff;fill-opacity:1" />
  <!-- White DB -->
</svg>
