<?xml version="1.0" encoding="UTF-8" standalone="no"?>
<svg
   xmlns:dc="http://purl.org/dc/elements/1.1/"
   xmlns:cc="http://creativecommons.org/ns#"
   xmlns:rdf="http://www.w3.org/1999/02/22-rdf-syntax-ns#"
   xmlns:svg="http://www.w3.org/2000/svg"
   xmlns="http://www.w3.org/2000/svg"
   xmlns:sodipodi="http://sodipodi.sourceforge.net/DTD/sodipodi-0.dtd"
   xmlns:inkscape="http://www.inkscape.org/namespaces/inkscape"
   version="1.1"
   x="0"
   y="0"
   width="44"
   height="44"
   viewBox="0 0 44 44.000002"
   enable-background="new 0 0 100 100"
   xml:space="preserve"
   id="svg2"
   inkscape:version="0.48.4 r9939"
   sodipodi:docname="icon_video.svg"><metadata
     id="metadata10"><rdf:RDF><cc:Work
         rdf:about=""><dc:format>image/svg+xml</dc:format><dc:type
           rdf:resource="http://purl.org/dc/dcmitype/StillImage" /></cc:Work></rdf:RDF></metadata><defs
     id="defs8" /><sodipodi:namedview
     pagecolor="#ffffff"
     bordercolor="#666666"
     borderopacity="1"
     objecttolerance="10"
     gridtolerance="10"
     guidetolerance="10"
     inkscape:pageopacity="0"
     inkscape:pageshadow="2"
     inkscape:window-width="959"
     inkscape:window-height="643"
     id="namedview6"
     showgrid="false"
     inkscape:zoom="6.2916558"
     inkscape:cx="3.0065898"
     inkscape:cy="18.754999"
     inkscape:window-x="0"
     inkscape:window-y="0"
     inkscape:window-maximized="0"
     inkscape:current-layer="svg2" /><path
     d="m 26.57,21.995222 c -0.31,1.03 -1.56,1.31 -2.35,1.96 -1.9,1.18 -3.76,2.44 -5.69,3.57 -1.41,0.19 -1.05,-1.45 -1.09,-2.32 0.02,-2.72 -0.04,-5.44 0.03,-8.15 0.51,-1.26 1.74,-0.2 2.45,0.25 2.08,1.32 4.17,2.65 6.25,3.97 l 0.29,0.31 0.11,0.41 0,0 z m 10.59,15.47 c 1.22,0 2.44,0 3.66,0 -0.5,0.23 -1.42,0.03 -2.08,0.1 -0.48,-0.07 -1.28,0.14 -1.58,-0.1 z m 5.25,-34.21 c -2.38,0.02 -4.77,-0.04 -7.15,0.03 -1.56,0.33 -1.24,2.09 -1.27,3.28 0,1.06 0,2.11 0,3.17 -7.99,0 -15.98,0 -23.97,0 -0.02,-1.74 0.04,-3.48 -0.03,-5.21 -0.33,-1.57 -2.09,-1.24 -3.29,-1.27 -1.81,0.02 -3.62,-0.04 -5.42,0.03 -1.57,0.33 -1.24,2.09 -1.27,3.29 0,10.86 0,21.71 0,32.57 -0.01,1.56 1.69,1.69 2.86,1.58 1.96,-0.02 3.92,0.04 5.87,-0.03 2.06,-0.68 1.01,-3.32 1.27,-4.94 0,-0.72 -0.24,-1.68 0.81,-1.34 7.72,0 15.44,0 23.16,0 0.07,1.78 -0.14,3.59 0.12,5.35 0.68,1.42 2.41,0.85 3.66,0.97 1.65,-0.02 3.31,0.04 4.96,-0.03 1.57,-0.33 1.24,-2.09 1.27,-3.29 0,-10.86 0,-21.71 0,-32.57 0.02,-0.85 -0.74,-1.6 -1.58,-1.58 z m -35.55,34.3 c -1.22,0 -2.44,0 -3.66,0 0,-1.2 0,-2.41 0,-3.61 1.22,0 2.44,0 3.66,0 0,1.2 0,2.41 0,3.61 z m 0,-7.13 c -1.22,0 -2.44,0 -3.66,0 0,-1.17 0,-2.34 0,-3.51 1.22,0 2.44,0 3.66,0 0,1.17 0,2.34 0,3.51 z m 0,-7.03 c -1.22,0 -2.44,0 -3.66,0 0,-1.17 0,-2.34 0,-3.51 1.22,0 2.44,0 3.66,0 0,1.17 0,2.34 0,3.51 z m 0,-7.03 c -1.22,0 -2.44,0 -3.66,0 0,-1.17 0,-2.34 0,-3.51 1.22,0 2.44,0 3.66,0 0,1.17 0,2.34 0,3.51 z m 0,-7.03 c -1.22,0 -2.44,0 -3.66,0 0,-0.97 0,-1.95 0,-2.92 1.22,0 2.44,0 3.66,0 0,0.97 0,1.95 0,2.92 z m 27.13,21.91 c -7.99,0 -15.98,0 -23.97,0 0,-6.11 0,-12.23 0,-18.34 7.99,0 15.98,0 23.97,0 0,6.11 0,12.23 0,18.34 z m 6.83,6.32 c -1.22,0 -2.44,0 -3.66,0 0,-1.2 0,-2.41 0,-3.61 1.22,0 2.44,0 3.66,0 0,1.2 0,2.41 0,3.61 z m 0,-7.13 c -1.22,0 -2.44,0 -3.66,0 0,-1.17 0,-2.34 0,-3.51 1.22,0 2.44,0 3.66,0 0,1.17 0,2.34 0,3.51 z m 0,-7.03 c -1.22,0 -2.44,0 -3.66,0 0,-1.17 0,-2.34 0,-3.51 1.22,0 2.44,0 3.66,0 0,1.17 0,2.34 0,3.51 z m 0,-7.03 c -1.22,0 -2.44,0 -3.66,0 0,-1.17 0,-2.34 0,-3.51 1.22,0 2.44,0 3.66,0 0,1.17 0,2.34 0,3.51 z m 0,-7.03 c -1.22,0 -2.44,0 -3.66,0 0,-0.97 0,-1.95 0,-2.92 1.22,0 2.44,0 3.66,0 0,0.97 0,1.95 0,2.92 z m -37.63,28.11 c 1.22,0 2.44,0 3.66,0 -0.5,0.23 -1.42,0.03 -2.08,0.1 -0.48,-0.07 -1.28,0.14 -1.58,-0.1 z"
     id="path4"
     inkscape:connector-curvature="0"
     style="fill:#ffffff" /></svg>