<?xml version="1.0" encoding="UTF-8" standalone="no"?>
<!-- Created with Inkscape (http://www.inkscape.org/) -->

<svg
   xmlns:dc="http://purl.org/dc/elements/1.1/"
   xmlns:cc="http://creativecommons.org/ns#"
   xmlns:rdf="http://www.w3.org/1999/02/22-rdf-syntax-ns#"
   xmlns:svg="http://www.w3.org/2000/svg"
   xmlns="http://www.w3.org/2000/svg"
   xmlns:sodipodi="http://sodipodi.sourceforge.net/DTD/sodipodi-0.dtd"
   xmlns:inkscape="http://www.inkscape.org/namespaces/inkscape"
   width="44"
   height="44.000019"
   id="svg6043"
   version="1.1"
   inkscape:version="0.48.4 r9939"
   sodipodi:docname="icon_gumroad.svg">
  <defs
     id="defs6045" />
  <sodipodi:namedview
     id="base"
     pagecolor="#ffffff"
     bordercolor="#666666"
     borderopacity="1.0"
     inkscape:pageopacity="0.0"
     inkscape:pageshadow="2"
     inkscape:zoom="1.979899"
     inkscape:cx="25.629069"
     inkscape:cy="56.866215"
     inkscape:document-units="px"
     inkscape:current-layer="layer1"
     showgrid="false"
     fit-margin-top="0"
     fit-margin-left="0"
     fit-margin-right="0"
     fit-margin-bottom="0"
     inkscape:window-width="960"
     inkscape:window-height="423"
     inkscape:window-x="-4"
     inkscape:window-y="200"
     inkscape:window-maximized="0" />
  <metadata
     id="metadata6048">
    <rdf:RDF>
      <cc:Work
         rdf:about="">
        <dc:format>image/svg+xml</dc:format>
        <dc:type
           rdf:resource="http://purl.org/dc/dcmitype/StillImage" />
        <dc:title />
      </cc:Work>
    </rdf:RDF>
  </metadata>
  <g
     inkscape:label="Layer 1"
     inkscape:groupmode="layer"
     id="layer1"
     transform="translate(-304.03118,-585.63448)">
    <path
       style="fill:#ffffff;fill-opacity:1;stroke:none"
       d="m 343.05656,585.6345 c -1.69036,0 -3.13644,1.02734 -3.73463,2.47997 l -29.95477,0 c -1.22519,-0.003 -4.2733,1.6116 -4.2818,3.90403 l -0.11501,33.44545 c -0.007,1.58825 2.21183,4.16972 4.03728,4.05196 l 33.08851,0.11859 c 1.46722,-9.4e-4 4.27745,-1.74729 4.27446,-3.21451 l 0.11977,-22.17515 c -0.005,-1.6995 -2.10059,-3.31758 -3.68152,-3.31842 l -20.99046,-0.35576 c -1.58581,-0.003 -4.04377,2.33288 -4.04463,3.9187 l -0.11858,8.53666 c -0.11789,1.34133 2.68132,3.67304 4.25978,3.56294 l 7.56778,0.22864 c 0.60949,1.4283 2.04007,2.43595 3.71263,2.43595 2.22679,0 4.03546,-1.77538 4.03546,-3.96942 0,-2.19405 -1.80867,-3.96943 -4.03546,-3.96943 -1.56899,0 -2.92263,0.88359 -3.58789,2.17181 l -8.61388,-0.0954 0,-9.25221 22.16569,0 0.10272,22.28308 -35.06449,0 0.33018,-34.9691 30.96299,0 c 0.67423,1.26117 2.01711,2.12045 3.56587,2.12045 2.22679,0 4.03546,-1.77538 4.03546,-3.96942 0,-2.19405 -1.80867,-3.96943 -4.03546,-3.96943 z m 0,2.19382 c 0.99463,0 1.80496,0.79561 1.80496,1.77561 0,0.97999 -0.81033,1.7756 -1.80496,1.7756 -0.99462,0 -1.79761,-0.79561 -1.79761,-1.7756 0,-0.98 0.80299,-1.77561 1.79761,-1.77561 z m -9.86119,25.68021 c 0.99462,0 1.80495,0.7956 1.80495,1.7756 0,0.98 -0.81033,1.7756 -1.80495,1.7756 -0.99463,0 -1.79762,-0.7956 -1.79762,-1.7756 0,-0.98 0.80299,-1.7756 1.79762,-1.7756 z"
       id="path6572"
       inkscape:connector-curvature="0"
       sodipodi:nodetypes="sccccccccccccccsssccccccccsssssssssssss" />
  </g>
</svg>
