<?xml version="1.0" encoding="UTF-8" standalone="no"?>
<!-- Created with Inkscape (http://www.inkscape.org/) -->

<svg
   xmlns:dc="http://purl.org/dc/elements/1.1/"
   xmlns:cc="http://creativecommons.org/ns#"
   xmlns:rdf="http://www.w3.org/1999/02/22-rdf-syntax-ns#"
   xmlns:svg="http://www.w3.org/2000/svg"
   xmlns="http://www.w3.org/2000/svg"
   xmlns:sodipodi="http://sodipodi.sourceforge.net/DTD/sodipodi-0.dtd"
   xmlns:inkscape="http://www.inkscape.org/namespaces/inkscape"
   width="44"
   height="44"
   id="svg4328"
   version="1.1"
   inkscape:version="0.48.4 r9939"
   sodipodi:docname="icon_indiegamestand.svg">
  <defs
     id="defs4330" />
  <sodipodi:namedview
     id="base"
     pagecolor="#ffffff"
     bordercolor="#666666"
     borderopacity="1.0"
     inkscape:pageopacity="0.0"
     inkscape:pageshadow="2"
     inkscape:zoom="1.979899"
     inkscape:cx="-93.554165"
     inkscape:cy="49.268877"
     inkscape:document-units="px"
     inkscape:current-layer="layer1"
     showgrid="false"
     fit-margin-top="0"
     fit-margin-left="0"
     fit-margin-right="0"
     fit-margin-bottom="0"
     inkscape:window-width="1329"
     inkscape:window-height="708"
     inkscape:window-x="259"
     inkscape:window-y="29"
     inkscape:window-maximized="0" />
  <metadata
     id="metadata4333">
    <rdf:RDF>
      <cc:Work
         rdf:about="">
        <dc:format>image/svg+xml</dc:format>
        <dc:type
           rdf:resource="http://purl.org/dc/dcmitype/StillImage" />
        <dc:title />
      </cc:Work>
    </rdf:RDF>
  </metadata>
  <g
     inkscape:label="Layer 1"
     inkscape:groupmode="layer"
     id="layer1"
     transform="translate(-369,-588.13869)">
    <path
       id="rect4861-4"
       style="fill:#ffffff;fill-opacity:1;stroke:none"
       d="m 413,631.89958 0,-3.52508 0,-4.30844 0,-7.42961 c 0,-1.95362 -1.57188,-3.53732 -3.52509,-3.53732 l -12.14196,0 c -1.9532,0 -3.52508,1.5837 -3.52508,3.53732 l 0,11.73804 c 0,1.95362 1.57188,3.52509 3.52508,3.52509 l 7.83353,0 4.30843,0 3.52509,0 z m 0,-43.52179 -3.52509,0 -4.30843,0 -7.42961,0 c -1.95362,0 -3.53732,1.57188 -3.53732,3.52508 l 0,12.14197 c 0,1.95321 1.5837,3.52508 3.53732,3.52508 l 11.73804,0 c 1.95362,0 3.52509,-1.57187 3.52509,-3.52508 l 0,-7.83352 0,-4.30845 0,-3.52508 z m -43.71962,43.52179 3.52509,0 4.30843,0 7.42961,0 c 1.95362,0 3.53733,-1.57187 3.53733,-3.52508 l 0,-12.14197 c 0,-1.9532 -1.58371,-3.52508 -3.53733,-3.52508 l -11.73804,0 c -1.95362,0 -3.52509,1.57188 -3.52509,3.52508 l 0,7.83353 0,4.30844 0,3.52508 z M 369,588.51609 l 0,3.52508 0,4.30844 0,7.42961 c 0,1.95362 1.57188,3.53733 3.52509,3.53733 l 12.14196,0 c 1.9532,0 3.52508,-1.58371 3.52508,-3.53733 l 0,-11.73805 c 0,-1.95362 -1.57188,-3.52508 -3.52508,-3.52508 l -7.83353,0 -4.30843,0 -3.52509,0 z"
       inkscape:connector-curvature="0" />
  </g>
</svg>
