<?xml version="1.0" encoding="UTF-8" standalone="no"?>
<!-- Created with Inkscape (http://www.inkscape.org/) -->

<svg
   xmlns:dc="http://purl.org/dc/elements/1.1/"
   xmlns:cc="http://creativecommons.org/ns#"
   xmlns:rdf="http://www.w3.org/1999/02/22-rdf-syntax-ns#"
   xmlns:svg="http://www.w3.org/2000/svg"
   xmlns="http://www.w3.org/2000/svg"
   xmlns:sodipodi="http://sodipodi.sourceforge.net/DTD/sodipodi-0.dtd"
   xmlns:inkscape="http://www.inkscape.org/namespaces/inkscape"
   width="44"
   height="44"
   id="svg2"
   version="1.1"
   inkscape:version="0.48.4 r9939"
   sodipodi:docname="New document 1">
  <defs
     id="defs4">
    <inkscape:perspective
       sodipodi:type="inkscape:persp3d"
       inkscape:vp_x="-116.80001 : 184.03482 : 0"
       inkscape:vp_y="2.0323897e-014 : 843.59346 : 0"
       inkscape:vp_z="116.80001 : 184.03482 : 0"
       inkscape:persp3d-origin="434.16236 : 324.89253 : 1"
       id="perspective3804" />
    <inkscape:perspective
       sodipodi:type="inkscape:persp3d"
       inkscape:vp_x="-333.6135 : 164.5949 : 0"
       inkscape:vp_y="5.8050732e-014 : 754.48319 : 0"
       inkscape:vp_z="333.6135 : 164.5949 : 0"
       inkscape:persp3d-origin="450.67323 : 337.07857 : 1"
       id="perspective3774" />
    <inkscape:perspective
       sodipodi:type="inkscape:persp3d"
       inkscape:vp_x="-313.23545 : 180.84657 : 0"
       inkscape:vp_y="5.4504831e-014 : 828.97889 : 0"
       inkscape:vp_z="313.23545 : 180.84657 : 0"
       inkscape:persp3d-origin="339.03321 : 305.51602 : 1"
       id="perspective3774-7" />
  </defs>
  <sodipodi:namedview
     id="base"
     pagecolor="#ffffff"
     bordercolor="#666666"
     borderopacity="1.0"
     inkscape:pageopacity="0.0"
     inkscape:pageshadow="2"
     inkscape:zoom="2.8"
     inkscape:cx="37.061039"
     inkscape:cy="37.208229"
     inkscape:document-units="px"
     inkscape:current-layer="layer1"
     showgrid="false"
     showguides="true"
     inkscape:guide-bbox="true"
     fit-margin-top="0"
     fit-margin-left="0"
     fit-margin-right="0"
     fit-margin-bottom="0"
     inkscape:window-width="1110"
     inkscape:window-height="814"
     inkscape:window-x="670"
     inkscape:window-y="43"
     inkscape:window-maximized="0" />
  <metadata
     id="metadata7">
    <rdf:RDF>
      <cc:Work
         rdf:about="">
        <dc:format>image/svg+xml</dc:format>
        <dc:type
           rdf:resource="http://purl.org/dc/dcmitype/StillImage" />
        <dc:title></dc:title>
      </cc:Work>
    </rdf:RDF>
  </metadata>
  <g
     inkscape:label="Layer 1"
     inkscape:groupmode="layer"
     id="layer1"
     transform="translate(-241.72784,-631.2484)">
    <path
       style="font-size:medium;font-style:normal;font-variant:normal;font-weight:normal;font-stretch:normal;text-indent:0;text-align:start;text-decoration:none;line-height:normal;letter-spacing:normal;word-spacing:normal;text-transform:none;direction:ltr;block-progression:tb;writing-mode:lr-tb;text-anchor:start;baseline-shift:baseline;color:#000000;fill:#000000;fill-opacity:1;fill-rule:nonzero;stroke:none;stroke-width:2.25186658;marker:none;visibility:visible;display:inline;overflow:visible;enable-background:accumulate;font-family:Sans;-inkscape-font-specification:Sans"
       d="m 281.13888,644.15698 a 0.60017207,0.60017207 0 0 1 0.24015,0.35021 l 4.26643,7.36753 a 0.60017207,0.60017207 0 0 1 -0.22888,0.82949 l -4.07421,2.35976 0.0451,6.58435 a 0.60017207,0.60017207 0 0 1 -0.29981,0.51928 l -16.91172,9.73793 a 0.60017207,0.60017207 0 0 1 -0.0394,0.035 0.60017207,0.60017207 0 0 1 -0.15541,0.10261 0.60017207,0.60017207 0 0 1 -0.0538,0.0266 0.60017207,0.60017207 0 0 1 -0.0144,-0.008 0.60017207,0.60017207 0 0 1 -0.0311,0.0205 0.60017207,0.60017207 0 0 1 -0.0228,0.006 0.60017207,0.60017207 0 0 1 -0.0455,0.0122 0.60017207,0.60017207 0 0 1 -0.0145,-0.008 0.60017207,0.60017207 0 0 1 -0.0455,0.0122 0.60017207,0.60017207 0 0 1 -0.0145,-0.008 0.60017207,0.60017207 0 0 1 -0.0455,0.0122 0.60017207,0.60017207 0 0 1 -0.066,-0.0189 0.60017207,0.60017207 0 0 1 -0.0516,-0.0105 0.60017207,0.60017207 0 0 1 -0.12373,-0.0522 0.60017207,0.60017207 0 0 1 -0.0288,-0.0166 0.60017207,0.60017207 0 0 1 -0.0288,-0.0166 l -0.0433,-0.025 -16.97763,-9.802 a 0.60017207,0.60017207 0 0 1 -0.29726,-0.51781 l -0.0101,-6.54493 -4.03887,-2.33183 a 0.60017207,0.60017207 0 0 1 -0.21947,-0.81909 l 4.22227,-7.31322 a 0.60017207,0.60017207 0 0 1 0.13325,-0.2308 0.60017207,0.60017207 0 0 1 0.0166,-0.0288 0.60017207,0.60017207 0 0 1 0.0705,-0.0555 0.60017207,0.60017207 0 0 1 0.008,-0.0144 0.60017207,0.60017207 0 0 1 0.0311,-0.0205 0.60017207,0.60017207 0 0 1 0.14707,-0.0882 0.60017207,0.60017207 0 0 1 0.0683,-0.0183 l 16.91783,-9.71518 a 0.60017207,0.60017207 0 0 1 0.59706,-0.002 l 17.07535,9.66608 a 0.60017207,0.60017207 0 0 1 0.0433,0.025 z m -1.53111,0.52 -15.88421,-8.99762 -15.85722,9.0774 15.85535,8.98096 15.88608,-9.06074 z m 0.96524,0.82654 -15.98764,9.13673 3.67905,6.58606 16.03984,-9.26046 -3.73125,-6.46233 z m -0.43607,10.24924 -11.79581,6.80642 a 0.60017207,0.60017207 0 0 1 -0.82949,-0.22888 l -3.18105,-5.68309 -0.008,13.80456 15.86168,-9.15175 -0.0476,-5.54726 z m -17.2168,-1.09306 -16.0512,-9.07481 -3.7226,6.44776 3.8225,2.20691 12.21755,7.05377 3.73375,-6.63363 z m 0.20354,2.07924 -3.19853,5.67329 a 0.60017207,0.60017207 0 0 1 -0.81909,0.21947 l -11.82809,-6.82892 -0.002,5.49952 15.85252,9.15242 -0.005,-13.71578 z"
       id="rect3876-7"
       inkscape:connector-curvature="0" />
  </g>
</svg>
