<?xml version="1.0" encoding="UTF-8" standalone="no"?>
<svg
   xmlns:dc="http://purl.org/dc/elements/1.1/"
   xmlns:cc="http://creativecommons.org/ns#"
   xmlns:rdf="http://www.w3.org/1999/02/22-rdf-syntax-ns#"
   xmlns:svg="http://www.w3.org/2000/svg"
   xmlns="http://www.w3.org/2000/svg"
   xmlns:sodipodi="http://sodipodi.sourceforge.net/DTD/sodipodi-0.dtd"
   xmlns:inkscape="http://www.inkscape.org/namespaces/inkscape"
   version="1.1"
   x="0"
   y="0"
   width="44"
   height="44"
   viewBox="0 0 44 44.000001"
   enable-background="new 0 0 100 100"
   xml:space="preserve"
   id="svg2"
   inkscape:version="0.48.4 r9939"
   sodipodi:docname="icon_press.svg"><metadata
     id="metadata12"><rdf:RDF><cc:Work
         rdf:about=""><dc:format>image/svg+xml</dc:format><dc:type
           rdf:resource="http://purl.org/dc/dcmitype/StillImage" /></cc:Work></rdf:RDF></metadata><defs
     id="defs10" /><sodipodi:namedview
     pagecolor="#ffffff"
     bordercolor="#666666"
     borderopacity="1"
     objecttolerance="10"
     gridtolerance="10"
     guidetolerance="10"
     inkscape:pageopacity="0"
     inkscape:pageshadow="2"
     inkscape:window-width="1168"
     inkscape:window-height="586"
     id="namedview8"
     showgrid="false"
     inkscape:zoom="6.2433864"
     inkscape:cx="2.8597461"
     inkscape:cy="18.9"
     inkscape:window-x="0"
     inkscape:window-y="0"
     inkscape:window-maximized="0"
     inkscape:current-layer="svg2" /><g
     display="none"
     transform="translate(-13.98,-29.805435)"
     id="g4"
     style="display:none" /><path
     d="m 37.194989,22.394989 c -3.8,1.3 -7.5,2.7 -11.3,4 -0.3,-0.8 -0.6,-1.6 -0.9,-2.4 3.8,-1.3 7.5,-2.7 11.3,-4 0.3,0.8 0.6,1.6 0.9,2.4 z m -1.3,-3.7 c -3.8,1.3 -7.5,2.7 -11.3,4 -0.3,-0.8 -0.6,-1.6 -0.9,-2.4 3.8,-1.3 7.5,-2.7 11.3,-4 0.3,0.8 0.6,1.6 0.9,2.4 z m -23.8,5.7 c 2.6,-0.9 5.3,-1.9 7.9,-2.8 0.7,2 1.5,4.1 2.2,6.1 -2.6,0.9 -5.3,1.9 -7.9,2.8 -0.8,-2 -1.5,-4 -2.2,-6.1 z m -2.2000003,-6.1 c 7.6000003,-2.7 15.3000003,-5.5 22.9000003,-8.2 0.4,1.2 0.9,2.4 1.3,3.7 -7.6,2.7 -15.3,5.5 -22.9,8.2 -0.4,-1.2 -0.9,-2.4 -1.3000003,-3.7 z m -6.8,-3.4 c 0.7,1.9 1.4,3.9 2.1,5.8 -1.7,0.6 -3.5,1.2 -5.20000004,1.8 1.90000004,5.3 3.80000004,10.7 5.70000004,16 1,2.3 3.9,3 6.0000003,1.9 10,-3.6 19.9,-7.1 29.9,-10.7 2.3,-1 3,-3.9 1.9,-6 -2.5,-6.8 -4.9,-13.6999998 -7.4,-20.5999999 -11,3.9000001 -22,7.8999999 -33.0000003,11.7999999 z m 7.6000003,21.4 c 0.3,2 -2.4000003,1.5 -2.4000003,-0.1 -1.4,-3.9 -2.8,-7.8 -4.2,-11.7 0.7,-0.3 1.4,-0.5 2.1,-0.8 1.5,4.2 3,8.4 4.5000003,12.5 z m 30,-10.7 c 0.3,1.4 -1.4,1.4 -2.2,1.8 -8.2,2.9 -16.3,5.9 -24.5,8.7 -0.1,-0.8 -0.4,-1.7 -0.8,-2.6 -2,-5.5 -3.9000003,-11.1 -5.9000003,-16.7 8.9000003,-3.2 17.9000003,-6.4 26.9000003,-9.5999998 2.2,6.0999998 4.4,12.1999998 6.5,18.2999998 z"
     id="path6"
     inkscape:connector-curvature="0"
     style="fill:#ffffff" /></svg>